<?xml version="1.0" encoding="utf-8" standalone="no"?>
<!DOCTYPE svg PUBLIC "-//W3C//DTD SVG 1.1//EN"
  "http://www.w3.org/Graphics/SVG/1.1/DTD/svg11.dtd">
<svg xmlns:xlink="http://www.w3.org/1999/xlink" width="864pt" height="360pt" viewBox="0 0 864 360" xmlns="http://www.w3.org/2000/svg" version="1.1">
 <metadata>
  <rdf:RDF xmlns:dc="http://purl.org/dc/elements/1.1/" xmlns:cc="http://creativecommons.org/ns#" xmlns:rdf="http://www.w3.org/1999/02/22-rdf-syntax-ns#">
   <cc:Work>
    <dc:type rdf:resource="http://purl.org/dc/dcmitype/StillImage"/>
    <dc:date>2025-01-03T19:49:57.286045</dc:date>
    <dc:format>image/svg+xml</dc:format>
    <dc:creator>
     <cc:Agent>
      <dc:title>Matplotlib v3.5.2, https://matplotlib.org/</dc:title>
     </cc:Agent>
    </dc:creator>
   </cc:Work>
  </rdf:RDF>
 </metadata>
 <defs>
  <style type="text/css">*{stroke-linejoin: round; stroke-linecap: butt}</style>
 </defs>
 <g id="figure_1">
  <g id="patch_1">
   <path d="M 0 360 
L 864 360 
L 864 0 
L 0 0 
z
" style="fill: #ffffff"/>
  </g>
  <g id="axes_1">
   <g id="patch_2">
    <path d="M 108 320.4 
L 777.6 320.4 
L 777.6 43.2 
L 108 43.2 
z
" style="fill: #ffffff"/>
   </g>
   <g id="matplotlib.axis_1">
    <g id="xtick_1">
     <g id="line2d_1">
      <defs>
       <path id="m9e46672011" d="M 0 0 
L 0 -3.5 
" style="stroke: #000000; stroke-width: 0.8"/>
      </defs>
      <g>
       <use xlink:href="#m9e46672011" x="139.885714" y="320.4" style="stroke: #000000; stroke-width: 0.8"/>
      </g>
     </g>
     <g id="text_1">
      <!-- 4.0 -->
      <g transform="translate(125.572902 337.577187)scale(0.18 -0.18)">
       <defs>
        <path id="DejaVuSans-34" d="M 2419 4116 
L 825 1625 
L 2419 1625 
L 2419 4116 
z
M 2253 4666 
L 3047 4666 
L 3047 1625 
L 3713 1625 
L 3713 1100 
L 3047 1100 
L 3047 0 
L 2419 0 
L 2419 1100 
L 313 1100 
L 313 1709 
L 2253 4666 
z
" transform="scale(0.015625)"/>
        <path id="DejaVuSans-2e" d="M 684 794 
L 1344 794 
L 1344 0 
L 684 0 
L 684 794 
z
" transform="scale(0.015625)"/>
        <path id="DejaVuSans-30" d="M 2034 4250 
Q 1547 4250 1301 3770 
Q 1056 3291 1056 2328 
Q 1056 1369 1301 889 
Q 1547 409 2034 409 
Q 2525 409 2770 889 
Q 3016 1369 3016 2328 
Q 3016 3291 2770 3770 
Q 2525 4250 2034 4250 
z
M 2034 4750 
Q 2819 4750 3233 4129 
Q 3647 3509 3647 2328 
Q 3647 1150 3233 529 
Q 2819 -91 2034 -91 
Q 1250 -91 836 529 
Q 422 1150 422 2328 
Q 422 3509 836 4129 
Q 1250 4750 2034 4750 
z
" transform="scale(0.015625)"/>
       </defs>
       <use xlink:href="#DejaVuSans-34"/>
       <use xlink:href="#DejaVuSans-2e" x="63.623047"/>
       <use xlink:href="#DejaVuSans-30" x="95.410156"/>
      </g>
     </g>
    </g>
    <g id="xtick_2">
     <g id="line2d_2">
      <g>
       <use xlink:href="#m9e46672011" x="219.6" y="320.4" style="stroke: #000000; stroke-width: 0.8"/>
      </g>
     </g>
     <g id="text_2">
      <!-- 4.5 -->
      <g transform="translate(205.287187 337.577187)scale(0.18 -0.18)">
       <defs>
        <path id="DejaVuSans-35" d="M 691 4666 
L 3169 4666 
L 3169 4134 
L 1269 4134 
L 1269 2991 
Q 1406 3038 1543 3061 
Q 1681 3084 1819 3084 
Q 2600 3084 3056 2656 
Q 3513 2228 3513 1497 
Q 3513 744 3044 326 
Q 2575 -91 1722 -91 
Q 1428 -91 1123 -41 
Q 819 9 494 109 
L 494 744 
Q 775 591 1075 516 
Q 1375 441 1709 441 
Q 2250 441 2565 725 
Q 2881 1009 2881 1497 
Q 2881 1984 2565 2268 
Q 2250 2553 1709 2553 
Q 1456 2553 1204 2497 
Q 953 2441 691 2322 
L 691 4666 
z
" transform="scale(0.015625)"/>
       </defs>
       <use xlink:href="#DejaVuSans-34"/>
       <use xlink:href="#DejaVuSans-2e" x="63.623047"/>
       <use xlink:href="#DejaVuSans-35" x="95.410156"/>
      </g>
     </g>
    </g>
    <g id="xtick_3">
     <g id="line2d_3">
      <g>
       <use xlink:href="#m9e46672011" x="299.314286" y="320.4" style="stroke: #000000; stroke-width: 0.8"/>
      </g>
     </g>
     <g id="text_3">
      <!-- 5.0 -->
      <g transform="translate(285.001473 337.577187)scale(0.18 -0.18)">
       <use xlink:href="#DejaVuSans-35"/>
       <use xlink:href="#DejaVuSans-2e" x="63.623047"/>
       <use xlink:href="#DejaVuSans-30" x="95.410156"/>
      </g>
     </g>
    </g>
    <g id="xtick_4">
     <g id="line2d_4">
      <g>
       <use xlink:href="#m9e46672011" x="379.028571" y="320.4" style="stroke: #000000; stroke-width: 0.8"/>
      </g>
     </g>
     <g id="text_4">
      <!-- 5.5 -->
      <g transform="translate(364.715759 337.577187)scale(0.18 -0.18)">
       <use xlink:href="#DejaVuSans-35"/>
       <use xlink:href="#DejaVuSans-2e" x="63.623047"/>
       <use xlink:href="#DejaVuSans-35" x="95.410156"/>
      </g>
     </g>
    </g>
    <g id="xtick_5">
     <g id="line2d_5">
      <g>
       <use xlink:href="#m9e46672011" x="458.742857" y="320.4" style="stroke: #000000; stroke-width: 0.8"/>
      </g>
     </g>
     <g id="text_5">
      <!-- 6.0 -->
      <g transform="translate(444.430045 337.577187)scale(0.18 -0.18)">
       <defs>
        <path id="DejaVuSans-36" d="M 2113 2584 
Q 1688 2584 1439 2293 
Q 1191 2003 1191 1497 
Q 1191 994 1439 701 
Q 1688 409 2113 409 
Q 2538 409 2786 701 
Q 3034 994 3034 1497 
Q 3034 2003 2786 2293 
Q 2538 2584 2113 2584 
z
M 3366 4563 
L 3366 3988 
Q 3128 4100 2886 4159 
Q 2644 4219 2406 4219 
Q 1781 4219 1451 3797 
Q 1122 3375 1075 2522 
Q 1259 2794 1537 2939 
Q 1816 3084 2150 3084 
Q 2853 3084 3261 2657 
Q 3669 2231 3669 1497 
Q 3669 778 3244 343 
Q 2819 -91 2113 -91 
Q 1303 -91 875 529 
Q 447 1150 447 2328 
Q 447 3434 972 4092 
Q 1497 4750 2381 4750 
Q 2619 4750 2861 4703 
Q 3103 4656 3366 4563 
z
" transform="scale(0.015625)"/>
       </defs>
       <use xlink:href="#DejaVuSans-36"/>
       <use xlink:href="#DejaVuSans-2e" x="63.623047"/>
       <use xlink:href="#DejaVuSans-30" x="95.410156"/>
      </g>
     </g>
    </g>
    <g id="xtick_6">
     <g id="line2d_6">
      <g>
       <use xlink:href="#m9e46672011" x="538.457143" y="320.4" style="stroke: #000000; stroke-width: 0.8"/>
      </g>
     </g>
     <g id="text_6">
      <!-- 6.5 -->
      <g transform="translate(524.14433 337.577187)scale(0.18 -0.18)">
       <use xlink:href="#DejaVuSans-36"/>
       <use xlink:href="#DejaVuSans-2e" x="63.623047"/>
       <use xlink:href="#DejaVuSans-35" x="95.410156"/>
      </g>
     </g>
    </g>
    <g id="xtick_7">
     <g id="line2d_7">
      <g>
       <use xlink:href="#m9e46672011" x="618.171429" y="320.4" style="stroke: #000000; stroke-width: 0.8"/>
      </g>
     </g>
     <g id="text_7">
      <!-- 7.0 -->
      <g transform="translate(603.858616 337.577187)scale(0.18 -0.18)">
       <defs>
        <path id="DejaVuSans-37" d="M 525 4666 
L 3525 4666 
L 3525 4397 
L 1831 0 
L 1172 0 
L 2766 4134 
L 525 4134 
L 525 4666 
z
" transform="scale(0.015625)"/>
       </defs>
       <use xlink:href="#DejaVuSans-37"/>
       <use xlink:href="#DejaVuSans-2e" x="63.623047"/>
       <use xlink:href="#DejaVuSans-30" x="95.410156"/>
      </g>
     </g>
    </g>
    <g id="xtick_8">
     <g id="line2d_8">
      <g>
       <use xlink:href="#m9e46672011" x="697.885714" y="320.4" style="stroke: #000000; stroke-width: 0.8"/>
      </g>
     </g>
     <g id="text_8">
      <!-- 7.5 -->
      <g transform="translate(683.572902 337.577187)scale(0.18 -0.18)">
       <use xlink:href="#DejaVuSans-37"/>
       <use xlink:href="#DejaVuSans-2e" x="63.623047"/>
       <use xlink:href="#DejaVuSans-35" x="95.410156"/>
      </g>
     </g>
    </g>
    <g id="xtick_9">
     <g id="line2d_9">
      <g>
       <use xlink:href="#m9e46672011" x="777.6" y="320.4" style="stroke: #000000; stroke-width: 0.8"/>
      </g>
     </g>
     <g id="text_9">
      <!-- 8.0 -->
      <g transform="translate(763.287187 337.577187)scale(0.18 -0.18)">
       <defs>
        <path id="DejaVuSans-38" d="M 2034 2216 
Q 1584 2216 1326 1975 
Q 1069 1734 1069 1313 
Q 1069 891 1326 650 
Q 1584 409 2034 409 
Q 2484 409 2743 651 
Q 3003 894 3003 1313 
Q 3003 1734 2745 1975 
Q 2488 2216 2034 2216 
z
M 1403 2484 
Q 997 2584 770 2862 
Q 544 3141 544 3541 
Q 544 4100 942 4425 
Q 1341 4750 2034 4750 
Q 2731 4750 3128 4425 
Q 3525 4100 3525 3541 
Q 3525 3141 3298 2862 
Q 3072 2584 2669 2484 
Q 3125 2378 3379 2068 
Q 3634 1759 3634 1313 
Q 3634 634 3220 271 
Q 2806 -91 2034 -91 
Q 1263 -91 848 271 
Q 434 634 434 1313 
Q 434 1759 690 2068 
Q 947 2378 1403 2484 
z
M 1172 3481 
Q 1172 3119 1398 2916 
Q 1625 2713 2034 2713 
Q 2441 2713 2670 2916 
Q 2900 3119 2900 3481 
Q 2900 3844 2670 4047 
Q 2441 4250 2034 4250 
Q 1625 4250 1398 4047 
Q 1172 3844 1172 3481 
z
" transform="scale(0.015625)"/>
       </defs>
       <use xlink:href="#DejaVuSans-38"/>
       <use xlink:href="#DejaVuSans-2e" x="63.623047"/>
       <use xlink:href="#DejaVuSans-30" x="95.410156"/>
      </g>
     </g>
    </g>
   </g>
   <g id="matplotlib.axis_2">
    <g id="ytick_1">
     <g id="line2d_10">
      <defs>
       <path id="m220c1747dc" d="M 0 0 
L 3.5 0 
" style="stroke: #000000; stroke-width: 0.8"/>
      </defs>
      <g>
       <use xlink:href="#m220c1747dc" x="108" y="320.4" style="stroke: #000000; stroke-width: 0.8"/>
      </g>
     </g>
     <g id="text_10">
      <!-- −100 -->
      <g transform="translate(55.059063 327.238594)scale(0.18 -0.18)">
       <defs>
        <path id="DejaVuSans-2212" d="M 678 2272 
L 4684 2272 
L 4684 1741 
L 678 1741 
L 678 2272 
z
" transform="scale(0.015625)"/>
        <path id="DejaVuSans-31" d="M 794 531 
L 1825 531 
L 1825 4091 
L 703 3866 
L 703 4441 
L 1819 4666 
L 2450 4666 
L 2450 531 
L 3481 531 
L 3481 0 
L 794 0 
L 794 531 
z
" transform="scale(0.015625)"/>
       </defs>
       <use xlink:href="#DejaVuSans-2212"/>
       <use xlink:href="#DejaVuSans-31" x="83.789062"/>
       <use xlink:href="#DejaVuSans-30" x="147.412109"/>
       <use xlink:href="#DejaVuSans-30" x="211.035156"/>
      </g>
     </g>
    </g>
    <g id="ytick_2">
     <g id="line2d_11">
      <g>
       <use xlink:href="#m220c1747dc" x="108" y="274.2" style="stroke: #000000; stroke-width: 0.8"/>
      </g>
     </g>
     <g id="text_11">
      <!-- −50 -->
      <g transform="translate(66.511562 281.038594)scale(0.18 -0.18)">
       <use xlink:href="#DejaVuSans-2212"/>
       <use xlink:href="#DejaVuSans-35" x="83.789062"/>
       <use xlink:href="#DejaVuSans-30" x="147.412109"/>
      </g>
     </g>
    </g>
    <g id="ytick_3">
     <g id="line2d_12">
      <g>
       <use xlink:href="#m220c1747dc" x="108" y="228" style="stroke: #000000; stroke-width: 0.8"/>
      </g>
     </g>
     <g id="text_12">
      <!-- 0 -->
      <g transform="translate(93.0475 234.838594)scale(0.18 -0.18)">
       <use xlink:href="#DejaVuSans-30"/>
      </g>
     </g>
    </g>
    <g id="ytick_4">
     <g id="line2d_13">
      <g>
       <use xlink:href="#m220c1747dc" x="108" y="181.8" style="stroke: #000000; stroke-width: 0.8"/>
      </g>
     </g>
     <g id="text_13">
      <!-- 50 -->
      <g transform="translate(81.595 188.638594)scale(0.18 -0.18)">
       <use xlink:href="#DejaVuSans-35"/>
       <use xlink:href="#DejaVuSans-30" x="63.623047"/>
      </g>
     </g>
    </g>
    <g id="ytick_5">
     <g id="line2d_14">
      <g>
       <use xlink:href="#m220c1747dc" x="108" y="135.6" style="stroke: #000000; stroke-width: 0.8"/>
      </g>
     </g>
     <g id="text_14">
      <!-- 100 -->
      <g transform="translate(70.1425 142.438594)scale(0.18 -0.18)">
       <use xlink:href="#DejaVuSans-31"/>
       <use xlink:href="#DejaVuSans-30" x="63.623047"/>
       <use xlink:href="#DejaVuSans-30" x="127.246094"/>
      </g>
     </g>
    </g>
    <g id="ytick_6">
     <g id="line2d_15">
      <g>
       <use xlink:href="#m220c1747dc" x="108" y="89.4" style="stroke: #000000; stroke-width: 0.8"/>
      </g>
     </g>
     <g id="text_15">
      <!-- 150 -->
      <g transform="translate(70.1425 96.238594)scale(0.18 -0.18)">
       <use xlink:href="#DejaVuSans-31"/>
       <use xlink:href="#DejaVuSans-35" x="63.623047"/>
       <use xlink:href="#DejaVuSans-30" x="127.246094"/>
      </g>
     </g>
    </g>
    <g id="ytick_7">
     <g id="line2d_16">
      <g>
       <use xlink:href="#m220c1747dc" x="108" y="43.2" style="stroke: #000000; stroke-width: 0.8"/>
      </g>
     </g>
     <g id="text_16">
      <!-- 200 -->
      <g transform="translate(70.1425 50.038594)scale(0.18 -0.18)">
       <defs>
        <path id="DejaVuSans-32" d="M 1228 531 
L 3431 531 
L 3431 0 
L 469 0 
L 469 531 
Q 828 903 1448 1529 
Q 2069 2156 2228 2338 
Q 2531 2678 2651 2914 
Q 2772 3150 2772 3378 
Q 2772 3750 2511 3984 
Q 2250 4219 1831 4219 
Q 1534 4219 1204 4116 
Q 875 4013 500 3803 
L 500 4441 
Q 881 4594 1212 4672 
Q 1544 4750 1819 4750 
Q 2544 4750 2975 4387 
Q 3406 4025 3406 3419 
Q 3406 3131 3298 2873 
Q 3191 2616 2906 2266 
Q 2828 2175 2409 1742 
Q 1991 1309 1228 531 
z
" transform="scale(0.015625)"/>
       </defs>
       <use xlink:href="#DejaVuSans-32"/>
       <use xlink:href="#DejaVuSans-30" x="63.623047"/>
       <use xlink:href="#DejaVuSans-30" x="127.246094"/>
      </g>
     </g>
    </g>
   </g>
   <g id="line2d_17">
    <path d="M 106.918508 284.364 
L 108.224658 281.592 
L 109.530807 281.592 
L 110.836956 288.06 
L 112.143105 286.212 
L 113.449254 275.124 
L 114.755404 273.276 
L 116.061553 275.124 
L 117.367702 275.124 
L 118.673851 281.592 
L 119.98 284.364 
L 121.28615 288.984 
L 122.592299 290.832 
L 123.898448 297.3 
L 126.510746 300.996 
L 127.816896 296.376 
L 129.123045 299.148 
L 130.429194 303.768 
L 131.735343 303.768 
L 133.041492 301.92 
L 134.347642 295.452 
L 135.653791 299.148 
L 136.95994 293.604 
L 138.266089 301.92 
L 139.572238 296.376 
L 140.878388 279.744 
L 142.184537 232.62 
L 144.429511 361 
M 146.506788 361 
L 147.409134 300.996 
L 148.715283 290.832 
L 150.021432 276.972 
L 151.327581 284.364 
L 152.63373 280.668 
L 153.93988 277.896 
L 155.246029 279.744 
L 156.552178 273.276 
L 157.858327 276.048 
L 159.164476 277.896 
L 160.470626 274.2 
L 161.776775 276.048 
L 164.389073 285.288 
L 165.695222 282.516 
L 167.001372 276.972 
L 168.307521 282.516 
L 169.61367 279.744 
L 170.919819 280.668 
L 172.225968 276.048 
L 173.532118 276.048 
L 174.838267 273.276 
L 176.144416 275.124 
L 177.450565 279.744 
L 178.756714 295.452 
L 180.062864 290.832 
L 181.369013 295.452 
L 182.675162 298.224 
L 183.981311 305.616 
L 185.28746 300.996 
L 186.59361 301.92 
L 187.899759 299.148 
L 189.205908 297.3 
L 190.512057 299.148 
L 191.818207 302.844 
L 193.124356 293.604 
L 194.430505 296.376 
L 195.736654 300.072 
L 197.042803 300.072 
L 199.655102 290.832 
L 200.961251 293.604 
L 202.2674 288.984 
L 203.573549 291.756 
L 204.879699 293.604 
L 206.185848 290.832 
L 207.491997 293.604 
L 208.798146 297.3 
L 210.104295 295.452 
L 211.410445 296.376 
L 212.716594 287.136 
L 214.022743 291.756 
L 215.328892 290.832 
L 216.635041 290.832 
L 217.941191 291.756 
L 219.24734 290.832 
L 220.553489 288.984 
L 221.859638 288.984 
L 223.165787 289.908 
L 224.471937 286.212 
L 225.778086 285.288 
L 227.084235 286.212 
L 228.390384 282.516 
L 229.696533 257.568 
L 231.002683 252.024 
L 232.893437 361 
M 235.023936 361 
L 236.227279 295.452 
L 237.533429 275.124 
L 238.839578 262.188 
L 240.145727 264.96 
L 241.451876 256.644 
L 242.758025 263.112 
L 244.064175 273.276 
L 245.370324 275.124 
L 246.676473 277.896 
L 247.982622 274.2 
L 249.288771 276.048 
L 250.594921 276.048 
L 251.90107 281.592 
L 253.207219 276.972 
L 254.513368 278.82 
L 255.819517 283.44 
L 257.125667 277.896 
L 258.431816 280.668 
L 259.737965 281.592 
L 261.044114 281.592 
L 262.350263 270.504 
L 263.656413 270.504 
L 264.962562 280.668 
L 266.268711 288.984 
L 267.57486 290.832 
L 268.881009 295.452 
L 270.187159 289.908 
L 271.493308 285.288 
L 272.799457 284.364 
L 274.105606 284.364 
L 275.411755 285.288 
L 276.717905 287.136 
L 278.024054 284.364 
L 279.330203 278.82 
L 280.636352 278.82 
L 281.942501 275.124 
L 283.248651 268.656 
L 284.5548 267.732 
L 285.860949 263.112 
L 287.167098 272.352 
L 288.473247 264.96 
L 289.779397 265.884 
L 291.085546 264.036 
L 292.391695 261.264 
L 293.697844 264.036 
L 295.003993 263.112 
L 296.310143 265.884 
L 298.922441 275.124 
L 300.22859 263.112 
L 301.534739 209.52 
L 302.840889 253.872 
L 304.147038 336.108 
L 305.246627 361 
M 305.54251 361 
L 306.759336 297.3 
L 308.065485 276.972 
L 309.371635 267.732 
L 310.677784 271.428 
L 311.983933 268.656 
L 313.290082 274.2 
L 314.596231 270.504 
L 315.902381 281.592 
L 317.20853 284.364 
L 318.514679 285.288 
L 319.820828 276.972 
L 321.126977 282.516 
L 322.433127 283.44 
L 323.739276 280.668 
L 325.045425 276.048 
L 326.351574 270.504 
L 327.657723 264.036 
L 328.963873 258.492 
L 330.270022 252.024 
L 331.576171 257.568 
L 332.88232 254.796 
L 334.188469 261.264 
L 335.494619 272.352 
L 338.106917 276.048 
L 339.413066 282.516 
L 340.719215 285.288 
L 342.025365 287.136 
L 343.331514 285.288 
L 344.637663 286.212 
L 345.943812 289.908 
L 347.249961 288.06 
L 348.556111 282.516 
L 349.86226 285.288 
L 351.168409 294.528 
L 352.474558 291.756 
L 353.780707 291.756 
L 355.086857 293.604 
L 356.393006 296.376 
L 357.699155 288.06 
L 360.311453 289.908 
L 361.617603 291.756 
L 362.923752 300.072 
L 364.229901 300.072 
L 365.53605 293.604 
L 366.842199 266.808 
L 368.148349 253.872 
L 369.849501 361 
M 372.194882 361 
L 373.372945 300.996 
L 374.679095 291.756 
L 375.985244 291.756 
L 377.291393 292.68 
L 378.597542 288.984 
L 379.903691 295.452 
L 381.209841 302.844 
L 382.51599 298.224 
L 383.822139 296.376 
L 385.128288 298.224 
L 386.434437 288.984 
L 387.740587 288.06 
L 389.046736 278.82 
L 390.352885 287.136 
L 392.965183 285.288 
L 394.271333 279.744 
L 395.577482 276.048 
L 396.883631 273.276 
L 398.18978 272.352 
L 399.495929 272.352 
L 400.802079 274.2 
L 402.108228 278.82 
L 403.414377 284.364 
L 404.720526 281.592 
L 406.026675 282.516 
L 407.332825 288.06 
L 408.638974 288.984 
L 409.945123 299.148 
L 411.251272 294.528 
L 412.557421 282.516 
L 413.863571 266.808 
L 415.16972 260.34 
L 416.475869 326.868 
L 417.782018 326.868 
L 419.088167 276.972 
L 420.394317 276.972 
L 421.700466 293.604 
L 423.006615 273.276 
L 424.312764 273.276 
L 425.618913 272.352 
L 426.925063 274.2 
L 428.231212 282.516 
L 429.537361 288.984 
L 430.84351 287.136 
L 432.149659 291.756 
L 433.455809 288.06 
L 434.761958 283.44 
L 436.068107 284.364 
L 437.374256 287.136 
L 438.680405 294.528 
L 439.986555 295.452 
L 441.292704 293.604 
L 442.598853 284.364 
L 443.905002 288.984 
L 445.211151 283.44 
L 446.517301 285.288 
L 447.82345 289.908 
L 449.129599 287.136 
L 450.435748 288.984 
L 451.741897 285.288 
L 453.048047 283.44 
L 454.354196 288.984 
L 455.660345 286.212 
L 456.966494 290.832 
L 458.272643 288.984 
L 459.578793 292.68 
L 460.884942 288.984 
L 462.191091 287.136 
L 463.49724 291.756 
L 464.803389 290.832 
L 466.109539 291.756 
L 467.415688 300.996 
L 468.721837 295.452 
L 470.027986 294.528 
L 471.334135 288.984 
L 473.946434 290.832 
L 475.252583 288.06 
L 476.558732 292.68 
L 477.864881 292.68 
L 479.171031 288.06 
L 480.47718 286.212 
L 481.783329 292.68 
L 483.089478 291.756 
L 484.395627 288.06 
L 485.701777 286.212 
L 487.007926 290.832 
L 488.314075 285.288 
L 489.620224 278.82 
L 490.926373 278.82 
L 492.232523 254.796 
L 493.538672 252.024 
L 495.381716 361 
M 497.477196 361 
L 498.763269 298.224 
L 500.069418 286.212 
L 501.375567 282.516 
L 502.681716 285.288 
L 503.987865 277.896 
L 505.294015 277.896 
L 506.600164 279.744 
L 507.906313 280.668 
L 509.212462 280.668 
L 510.518611 295.452 
L 511.824761 288.984 
L 514.437059 281.592 
L 515.743208 284.364 
L 517.049357 278.82 
L 518.355507 276.972 
L 519.661656 278.82 
L 520.967805 277.896 
L 522.273954 272.352 
L 523.580103 271.428 
L 524.886253 271.428 
L 526.192402 266.808 
L 527.498551 277.896 
L 528.8047 281.592 
L 530.110849 281.592 
L 531.416999 279.744 
L 532.723148 278.82 
L 534.029297 287.136 
L 535.335446 287.136 
L 536.641595 288.06 
L 537.947745 286.212 
L 539.253894 281.592 
L 540.560043 239.088 
L 541.866192 228.924 
L 543.172341 225.228 
L 544.478491 219.684 
L 545.78464 225.228 
L 547.090789 231.696 
L 548.396938 230.772 
L 549.703087 230.772 
L 551.009237 228 
L 552.315386 228.924 
L 554.927684 227.076 
L 556.233833 221.532 
L 557.539983 188.268 
L 558.846132 227.076 
L 560.152281 315.78 
L 561.45843 344.424 
L 562.764579 259.416 
L 564.070729 243.708 
L 565.376878 235.392 
L 567.989176 233.544 
L 569.295325 228.924 
L 570.601475 231.696 
L 571.907624 235.392 
L 573.213773 236.316 
L 574.519922 236.316 
L 575.826071 238.164 
L 577.132221 242.784 
L 578.43837 241.86 
L 579.744519 247.404 
L 581.050668 243.708 
L 582.356817 246.48 
L 583.662967 240.012 
L 584.969116 236.316 
L 586.275265 233.544 
L 587.581414 236.316 
L 588.887563 234.468 
L 590.193713 233.544 
L 591.499862 236.316 
L 592.806011 234.468 
L 594.11216 236.316 
L 595.418309 242.784 
L 596.724459 247.404 
L 598.030608 252.948 
L 599.336757 253.872 
L 600.642906 252.024 
L 603.255205 257.568 
L 604.561354 256.644 
L 605.867503 250.176 
L 607.173652 254.796 
L 608.479802 251.1 
L 611.0921 262.188 
L 612.398249 257.568 
L 613.704398 263.112 
L 615.010548 264.96 
L 616.316697 264.96 
L 617.622846 259.416 
L 618.928995 256.644 
L 620.235144 251.1 
L 621.541294 200.28 
L 622.847443 203.976 
L 624.153592 280.668 
L 625.214861 361 
M 625.779279 361 
L 626.76589 303.768 
L 628.07204 256.644 
L 629.378189 245.556 
L 630.684338 243.708 
L 631.990487 239.088 
L 633.296636 238.164 
L 634.602786 241.86 
L 635.908935 247.404 
L 637.215084 255.72 
L 638.521233 255.72 
L 641.133532 263.112 
L 642.439681 269.58 
L 643.74583 269.58 
L 645.051979 275.124 
L 646.358128 267.732 
L 647.664278 262.188 
L 648.970427 257.568 
L 652.888874 218.76 
L 654.195024 220.608 
L 655.501173 225.228 
L 658.113471 225.228 
L 659.41962 224.304 
L 660.72577 228.924 
L 662.031919 226.152 
L 663.338068 228 
L 664.644217 232.62 
L 665.950366 233.544 
L 667.256516 231.696 
L 668.562665 228 
L 669.868814 230.772 
L 671.174963 223.38 
L 672.481112 194.736 
L 673.787262 207.672 
L 675.093411 317.628 
L 676.39956 357.36 
L 677.705709 273.276 
L 679.011858 248.328 
L 680.318008 231.696 
L 681.624157 217.836 
L 682.930306 228 
L 684.236455 228.924 
L 685.542604 237.24 
L 686.848754 226.152 
L 688.154903 231.696 
L 689.461052 231.696 
L 690.767201 239.088 
L 692.07335 230.772 
L 693.3795 233.544 
L 694.685649 232.62 
L 695.991798 232.62 
L 697.297947 227.076 
L 698.604096 228 
L 699.910246 220.608 
L 701.216395 221.532 
L 702.522544 216.912 
L 703.828693 215.064 
L 705.134842 223.38 
L 706.440992 221.532 
L 707.747141 231.696 
L 709.05329 228 
L 710.359439 234.468 
L 711.665588 243.708 
L 712.971738 245.556 
L 714.277887 256.644 
L 715.584036 254.796 
L 716.890185 263.112 
L 718.196334 259.416 
L 719.502484 252.948 
L 720.808633 258.492 
L 726.03323 254.796 
L 727.339379 261.264 
L 728.645528 257.568 
L 729.951677 265.884 
L 731.257826 265.884 
L 732.563976 248.328 
L 733.870125 201.204 
L 735.176274 231.696 
L 737.149131 361 
M 738.428014 361 
L 739.094722 318.552 
L 740.400871 263.112 
L 741.70702 245.556 
L 743.013169 252.948 
L 744.319318 254.796 
L 745.625468 263.112 
L 746.931617 269.58 
L 748.237766 273.276 
L 749.543915 272.352 
L 750.850064 276.048 
L 752.156214 274.2 
L 753.462363 275.124 
L 754.768512 263.112 
L 756.074661 264.96 
L 757.38081 264.036 
L 758.68696 266.808 
L 759.993109 272.352 
L 761.299258 271.428 
L 762.605407 262.188 
L 763.911556 260.34 
L 765.217706 272.352 
L 766.523855 276.048 
L 767.830004 276.972 
L 769.136153 275.124 
L 770.442302 276.972 
L 771.748452 264.96 
L 773.054601 271.428 
L 774.36075 276.048 
L 775.666899 281.592 
L 776.973048 280.668 
L 778.279198 282.516 
L 778.279198 282.516 
" clip-path="url(#p18596a7df0)" style="fill: none; stroke: #1f77b4; stroke-width: 1.5; stroke-linecap: square"/>
   </g>
   <g id="line2d_18">
    <path d="M 106.918508 224.671111 
L 108.224658 221.542457 
L 109.530807 222.34578 
L 110.836956 225.002065 
L 112.143105 222.812295 
L 113.449254 216.238452 
L 114.755404 212.903514 
L 116.061553 213.269461 
L 117.367702 215.257269 
L 121.28615 226.562598 
L 122.592299 230.186582 
L 123.898448 234.277284 
L 125.204597 237.217672 
L 126.510746 237.390711 
L 127.816896 236.182364 
L 129.123045 237.519593 
L 130.429194 240.478358 
L 131.735343 241.131617 
L 134.347642 235.752449 
L 135.653791 234.570929 
L 136.95994 234.779724 
L 138.266089 236.147783 
L 139.572238 231.283057 
L 140.878388 209.790492 
L 142.184537 200.545036 
L 143.490686 244.664633 
L 144.796835 302.417227 
L 146.102984 302.423759 
L 147.409134 257.851171 
L 148.715283 227.604401 
L 150.021432 219.999387 
L 152.63373 218.660374 
L 153.93988 216.841243 
L 155.246029 215.487607 
L 156.552178 213.444397 
L 157.858327 213.714543 
L 159.164476 214.449974 
L 160.470626 213.571617 
L 161.776775 214.7754 
L 163.082924 218.754248 
L 164.389073 221.581086 
L 165.695222 220.021836 
L 167.001372 218.003422 
L 168.307521 218.759765 
L 169.61367 219.056785 
L 170.919819 217.739402 
L 172.225968 215.731535 
L 173.532118 213.957102 
L 174.838267 213.109019 
L 176.144416 214.573203 
L 177.450565 221.35257 
L 178.756714 229.289035 
L 180.062864 232.145512 
L 181.369013 234.079915 
L 182.675162 238.557157 
L 183.981311 241.88115 
L 185.28746 241.741808 
L 186.59361 240.44904 
L 187.899759 238.92676 
L 189.205908 237.867877 
L 190.512057 239.351303 
L 191.818207 239.449948 
L 193.124356 236.546722 
L 194.430505 236.647535 
L 195.736654 239.290297 
L 197.042803 239.161919 
L 198.348953 235.800309 
L 199.655102 233.132378 
L 202.2674 231.494191 
L 203.573549 232.292755 
L 204.879699 233.322638 
L 206.185848 233.197751 
L 207.491997 234.921005 
L 208.798146 237.10631 
L 210.104295 237.443579 
L 211.410445 235.239723 
L 212.716594 232.111655 
L 214.022743 231.986289 
L 215.328892 232.784538 
L 216.635041 232.889315 
L 217.941191 233.224538 
L 219.24734 232.63512 
L 220.553489 231.582979 
L 221.859638 231.454033 
L 223.165787 231.093198 
L 224.471937 229.345396 
L 225.778086 228.289545 
L 227.084235 227.694567 
L 228.390384 219.937384 
L 229.696533 205.24892 
L 231.002683 214.5831 
L 232.308832 269.884848 
L 233.614981 318.717092 
L 234.92113 301.71276 
L 236.227279 251.442783 
L 237.533429 220.34409 
L 238.839578 209.571615 
L 240.145727 205.727291 
L 241.451876 203.960054 
L 242.758025 207.734841 
L 244.064175 214.97259 
L 245.370324 219.205242 
L 246.676473 220.201738 
L 247.982622 219.579023 
L 249.288771 219.647041 
L 250.594921 221.56074 
L 251.90107 223.241068 
L 253.207219 222.839978 
L 254.513368 223.82242 
L 255.819517 225.264351 
L 257.125667 224.393726 
L 258.431816 224.675505 
L 259.737965 225.878648 
L 261.044114 223.383117 
L 262.350263 217.881878 
L 263.656413 217.690898 
L 266.268711 232.08459 
L 267.57486 236.274207 
L 268.881009 237.688973 
L 270.187159 234.942863 
L 271.493308 231.038859 
L 272.799457 229.441942 
L 274.105606 229.459098 
L 275.411755 230.397313 
L 276.717905 230.870577 
L 278.024054 228.56888 
L 279.330203 225.109217 
L 280.636352 222.801584 
L 281.942501 219.33598 
L 283.248651 214.943406 
L 284.5548 211.702864 
L 285.860949 211.46236 
L 287.167098 213.066903 
L 288.473247 211.896503 
L 289.779397 210.030173 
L 291.085546 208.622928 
L 292.391695 207.443786 
L 293.697844 207.878766 
L 295.003993 208.772891 
L 296.310143 211.050185 
L 297.616292 215.172677 
L 298.922441 215.596394 
L 301.534739 178.551635 
L 302.840889 207.84223 
L 304.147038 267.391192 
L 305.453187 285.588561 
L 308.065485 224.031698 
L 309.371635 215.194558 
L 310.677784 213.978013 
L 311.983933 214.838113 
L 313.290082 215.926912 
L 314.596231 218.168468 
L 315.902381 223.410838 
L 317.20853 227.727083 
L 318.514679 226.728266 
L 319.820828 224.110449 
L 321.126977 224.955701 
L 322.433127 226.030089 
L 323.739276 223.637683 
L 325.045425 219.164555 
L 327.657723 207.441432 
L 328.963873 201.346589 
L 330.270022 198.02233 
L 331.576171 198.392735 
L 332.88232 199.916887 
L 334.188469 205.13587 
L 335.494619 212.663768 
L 336.800768 216.725669 
L 338.106917 219.63166 
L 339.413066 223.922831 
L 340.719215 227.289272 
L 342.025365 228.345076 
L 343.331514 228.014336 
L 344.637663 228.838146 
L 345.943812 230.354601 
L 347.249961 228.867798 
L 348.556111 226.225835 
L 349.86226 228.434808 
L 351.168409 232.953819 
L 352.474558 233.776966 
L 353.780707 233.44535 
L 355.086857 234.962073 
L 356.393006 234.631237 
L 357.699155 231.297944 
L 359.005304 229.813297 
L 360.311453 230.870399 
L 361.617603 234.007356 
L 362.923752 238.531269 
L 364.229901 238.898245 
L 365.53605 228.871388 
L 366.842199 210.529802 
L 368.148349 217.137591 
L 369.454498 276.414862 
L 370.760647 327.608718 
L 372.066796 305.115264 
L 373.372945 255.134605 
L 374.679095 233.799844 
L 375.985244 231.640085 
L 377.291393 231.099432 
L 378.597542 231.022987 
L 381.209841 239.193132 
L 382.51599 238.199925 
L 383.822139 236.516332 
L 385.128288 234.604453 
L 386.434437 230.154388 
L 387.740587 225.014233 
L 389.046736 222.187086 
L 390.352885 223.752043 
L 391.659034 225.089199 
L 392.965183 222.964648 
L 395.577482 215.029792 
L 396.883631 212.45367 
L 398.18978 211.267203 
L 399.495929 211.470479 
L 400.802079 213.525583 
L 402.108228 217.6636 
L 403.414377 220.881613 
L 404.720526 221.100701 
L 406.026675 222.247946 
L 407.332825 225.478424 
L 409.945123 234.03138 
L 411.251272 231.269004 
L 412.557421 220.195153 
L 413.863571 207.739895 
L 415.16972 217.234296 
L 416.475869 248.90942 
L 417.782018 253.100328 
L 419.088167 228.19008 
L 420.394317 219.916734 
L 421.700466 223.198344 
L 423.006615 217.244963 
L 424.312764 211.989642 
L 425.618913 212.052429 
L 426.925063 214.892368 
L 428.231212 221.202505 
L 429.537361 226.131878 
L 430.84351 228.063527 
L 432.149659 229.076487 
L 433.455809 227.322791 
L 434.761958 224.419469 
L 436.068107 224.52455 
L 437.374256 228.100057 
L 438.680405 232.836015 
L 439.986555 234.805442 
L 441.292704 231.929355 
L 442.598853 228.134769 
L 443.905002 226.886695 
L 445.211151 225.875142 
L 446.517301 226.717116 
L 447.82345 228.95062 
L 449.129599 229.341653 
L 450.435748 228.814215 
L 451.741897 227.137298 
L 453.048047 226.851896 
L 454.354196 228.650996 
L 458.272643 232.695159 
L 459.578793 233.361102 
L 460.884942 232.184449 
L 462.191091 231.706173 
L 463.49724 233.543241 
L 464.803389 234.69262 
L 466.109539 237.464274 
L 467.415688 241.165162 
L 468.721837 240.713242 
L 470.027986 237.72547 
L 471.334135 235.204796 
L 472.640285 234.768171 
L 475.252583 235.29585 
L 476.558732 237.184039 
L 477.864881 237.460046 
L 479.171031 234.968807 
L 480.47718 234.792256 
L 481.783329 237.623323 
L 483.089478 238.148937 
L 484.395627 235.907022 
L 485.701777 235.517502 
L 487.007926 236.287298 
L 488.314075 233.365327 
L 489.620224 229.061507 
L 490.926373 221.758749 
L 492.232523 209.377966 
L 493.538672 221.487067 
L 494.844821 279.106957 
L 496.15097 326.566543 
L 497.457119 307.963726 
L 498.763269 262.106407 
L 500.069418 239.583484 
L 501.375567 235.774853 
L 502.681716 234.74141 
L 503.987865 232.094047 
L 505.294015 231.066655 
L 506.600164 232.583124 
L 507.906313 233.871339 
L 509.212462 238.165188 
L 510.518611 244.309555 
L 511.824761 244.219322 
L 513.13091 240.204371 
L 514.437059 238.501582 
L 515.743208 237.955833 
L 517.049357 235.795002 
L 518.355507 234.328964 
L 519.661656 234.943595 
L 520.967805 233.942769 
L 522.273954 231.095358 
L 523.580103 229.635234 
L 524.886253 228.63827 
L 526.192402 229.490334 
L 527.498551 235.194297 
L 528.8047 240.206027 
L 530.110849 241.060393 
L 531.416999 240.298262 
L 532.723148 241.846502 
L 534.029297 246.16698 
L 535.335446 248.870563 
L 536.641595 249.264116 
L 537.947745 247.809505 
L 539.253894 234.804598 
L 540.560043 210.24926 
L 541.866192 194.009357 
L 543.172341 188.625754 
L 544.478491 186.70632 
L 545.78464 190.098919 
L 547.090789 194.876419 
L 548.396938 196.418687 
L 549.703087 195.880591 
L 551.009237 195.109999 
L 553.621535 194.949803 
L 554.927684 193.249937 
L 556.233833 182.308055 
L 557.539983 174.367028 
L 558.846132 208.003728 
L 560.152281 269.589028 
L 561.45843 285.202804 
L 562.764579 246.297932 
L 564.070729 215.475287 
L 565.376878 207.518749 
L 566.683027 205.103195 
L 569.295325 202.110569 
L 570.601475 203.612261 
L 571.907624 206.72747 
L 573.213773 208.453081 
L 574.519922 209.481984 
L 575.826071 211.893067 
L 577.132221 214.762223 
L 578.43837 217.165344 
L 579.744519 219.102325 
L 581.050668 219.649065 
L 582.356817 218.80546 
L 583.662967 215.647412 
L 584.969116 211.791823 
L 586.275265 210.472599 
L 587.581414 210.996646 
L 588.887563 210.822873 
L 590.193713 210.875191 
L 591.499862 211.846514 
L 592.806011 212.350756 
L 594.11216 214.697835 
L 595.418309 219.811672 
L 596.724459 225.382189 
L 598.030608 229.79231 
L 599.336757 231.424962 
L 600.642906 231.666076 
L 601.949055 233.518582 
L 603.255205 235.596415 
L 604.561354 234.434512 
L 605.867503 232.342812 
L 607.173652 232.324257 
L 608.479802 233.223792 
L 611.0921 239.855919 
L 612.398249 240.506414 
L 613.704398 242.767801 
L 615.010548 245.254038 
L 616.316697 244.500085 
L 617.622846 241.198904 
L 618.928995 237.198461 
L 620.235144 221.179723 
L 621.541294 195.452661 
L 622.847443 203.907249 
L 624.153592 268.026461 
L 625.459741 317.817276 
L 626.76589 292.988676 
L 628.07204 247.825645 
L 629.378189 230.145168 
L 630.684338 225.394235 
L 631.990487 222.484838 
L 633.296636 221.878971 
L 634.602786 224.962631 
L 637.215084 236.423532 
L 639.827382 242.314572 
L 642.439681 250.951817 
L 643.74583 253.990301 
L 645.051979 254.94338 
L 646.358128 251.270076 
L 647.664278 245.51141 
L 648.970427 238.591409 
L 650.276576 227.738098 
L 651.582725 214.799508 
L 652.888874 205.550671 
L 654.195024 204.380622 
L 655.501173 207.131396 
L 656.807322 208.259035 
L 658.113471 207.994578 
L 659.41962 208.648069 
L 660.72577 209.988555 
L 662.031919 210.168082 
L 663.338068 211.496702 
L 664.644217 214.436466 
L 665.950366 215.522428 
L 668.562665 212.133174 
L 669.868814 210.661076 
L 671.174963 200.405413 
L 672.481112 187.372248 
L 673.787262 214.065648 
L 675.093411 282.102679 
L 676.39956 308.323411 
L 679.011858 232.08226 
L 680.318008 213.935525 
L 681.624157 205.254782 
L 682.930306 206.96411 
L 684.236455 211.902586 
L 685.542604 213.371291 
L 686.848754 211.139305 
L 688.154903 210.98171 
L 689.461052 214.053591 
L 690.767201 215.504032 
L 692.07335 213.716119 
L 693.3795 212.61694 
L 694.685649 212.668581 
L 695.991798 210.868132 
L 698.604096 205.176324 
L 699.910246 201.747148 
L 702.522544 196.26371 
L 703.828693 196.057636 
L 705.134842 199.082117 
L 707.747141 206.045122 
L 709.05329 208.135838 
L 710.359439 212.533489 
L 711.665588 219.007173 
L 714.277887 230.098024 
L 715.584036 233.791385 
L 716.890185 236.327165 
L 718.196334 234.70246 
L 719.502484 231.689369 
L 720.808633 232.369987 
L 722.114782 232.817411 
L 724.72708 230.472064 
L 726.03323 231.144484 
L 727.339379 232.970095 
L 728.645528 234.56299 
L 729.951677 237.540266 
L 731.257826 234.972016 
L 733.870125 193.564312 
L 735.176274 218.481044 
L 736.482423 290.058621 
L 737.788572 332.298133 
L 739.094722 297.382672 
L 740.400871 244.217326 
L 741.70702 223.160184 
L 743.013169 222.661333 
L 744.319318 227.243861 
L 746.931617 239.179391 
L 748.237766 242.143562 
L 749.543915 243.259448 
L 750.850064 244.144129 
L 752.156214 244.104685 
L 753.462363 240.831196 
L 754.768512 235.247739 
L 756.074661 232.66739 
L 757.38081 233.090225 
L 758.68696 235.361318 
L 759.993109 238.32574 
L 761.299258 236.670562 
L 762.605407 231.088855 
L 763.911556 230.589686 
L 765.217706 236.790122 
L 766.523855 241.605229 
L 767.830004 242.26307 
L 769.136153 241.766707 
L 770.442302 238.961201 
L 771.748452 234.770611 
L 773.054601 235.893995 
L 774.36075 240.945408 
L 775.666899 244.380906 
L 776.973048 245.507542 
L 778.279198 245.249366 
L 778.279198 245.249366 
" clip-path="url(#p18596a7df0)" style="fill: none; stroke: #ff7f0e; stroke-width: 1.5; stroke-linecap: square"/>
   </g>
   <g id="patch_3">
    <path d="M 108 320.4 
L 108 43.2 
" style="fill: none; stroke: #000000; stroke-width: 2; stroke-linejoin: miter; stroke-linecap: square"/>
   </g>
   <g id="patch_4">
    <path d="M 777.6 320.4 
L 777.6 43.2 
" style="fill: none; stroke: #000000; stroke-width: 2; stroke-linejoin: miter; stroke-linecap: square"/>
   </g>
   <g id="patch_5">
    <path d="M 108 320.4 
L 777.6 320.4 
" style="fill: none; stroke: #000000; stroke-width: 2; stroke-linejoin: miter; stroke-linecap: square"/>
   </g>
   <g id="patch_6">
    <path d="M 108 43.2 
L 777.6 43.2 
" style="fill: none; stroke: #000000; stroke-width: 2; stroke-linejoin: miter; stroke-linecap: square"/>
   </g>
   <g id="legend_1">
    <g id="patch_7">
     <path d="M 604.954687 110.941875 
L 765 110.941875 
Q 768.6 110.941875 768.6 107.341875 
L 768.6 55.8 
Q 768.6 52.2 765 52.2 
L 604.954687 52.2 
Q 601.354687 52.2 601.354687 55.8 
L 601.354687 107.341875 
Q 601.354687 110.941875 604.954687 110.941875 
z
" style="fill: #ffffff; opacity: 0.8; stroke: #cccccc; stroke-linejoin: miter"/>
    </g>
    <g id="line2d_19">
     <path d="M 608.554688 66.777187 
L 626.554688 66.777187 
L 644.554688 66.777187 
" style="fill: none; stroke: #1f77b4; stroke-width: 1.5; stroke-linecap: square"/>
    </g>
    <g id="text_17">
     <!-- ch_1 -->
     <g transform="translate(658.954687 73.077187)scale(0.18 -0.18)">
      <defs>
       <path id="DejaVuSans-63" d="M 3122 3366 
L 3122 2828 
Q 2878 2963 2633 3030 
Q 2388 3097 2138 3097 
Q 1578 3097 1268 2742 
Q 959 2388 959 1747 
Q 959 1106 1268 751 
Q 1578 397 2138 397 
Q 2388 397 2633 464 
Q 2878 531 3122 666 
L 3122 134 
Q 2881 22 2623 -34 
Q 2366 -91 2075 -91 
Q 1284 -91 818 406 
Q 353 903 353 1747 
Q 353 2603 823 3093 
Q 1294 3584 2113 3584 
Q 2378 3584 2631 3529 
Q 2884 3475 3122 3366 
z
" transform="scale(0.015625)"/>
       <path id="DejaVuSans-68" d="M 3513 2113 
L 3513 0 
L 2938 0 
L 2938 2094 
Q 2938 2591 2744 2837 
Q 2550 3084 2163 3084 
Q 1697 3084 1428 2787 
Q 1159 2491 1159 1978 
L 1159 0 
L 581 0 
L 581 4863 
L 1159 4863 
L 1159 2956 
Q 1366 3272 1645 3428 
Q 1925 3584 2291 3584 
Q 2894 3584 3203 3211 
Q 3513 2838 3513 2113 
z
" transform="scale(0.015625)"/>
       <path id="DejaVuSans-5f" d="M 3263 -1063 
L 3263 -1509 
L -63 -1509 
L -63 -1063 
L 3263 -1063 
z
" transform="scale(0.015625)"/>
      </defs>
      <use xlink:href="#DejaVuSans-63"/>
      <use xlink:href="#DejaVuSans-68" x="54.980469"/>
      <use xlink:href="#DejaVuSans-5f" x="118.359375"/>
      <use xlink:href="#DejaVuSans-31" x="168.359375"/>
     </g>
    </g>
    <g id="line2d_20">
     <path d="M 608.554688 93.698437 
L 626.554688 93.698437 
L 644.554688 93.698437 
" style="fill: none; stroke: #ff7f0e; stroke-width: 1.5; stroke-linecap: square"/>
    </g>
    <g id="text_18">
     <!-- filtered ch1 -->
     <g transform="translate(658.954687 99.998437)scale(0.18 -0.18)">
      <defs>
       <path id="DejaVuSans-66" d="M 2375 4863 
L 2375 4384 
L 1825 4384 
Q 1516 4384 1395 4259 
Q 1275 4134 1275 3809 
L 1275 3500 
L 2222 3500 
L 2222 3053 
L 1275 3053 
L 1275 0 
L 697 0 
L 697 3053 
L 147 3053 
L 147 3500 
L 697 3500 
L 697 3744 
Q 697 4328 969 4595 
Q 1241 4863 1831 4863 
L 2375 4863 
z
" transform="scale(0.015625)"/>
       <path id="DejaVuSans-69" d="M 603 3500 
L 1178 3500 
L 1178 0 
L 603 0 
L 603 3500 
z
M 603 4863 
L 1178 4863 
L 1178 4134 
L 603 4134 
L 603 4863 
z
" transform="scale(0.015625)"/>
       <path id="DejaVuSans-6c" d="M 603 4863 
L 1178 4863 
L 1178 0 
L 603 0 
L 603 4863 
z
" transform="scale(0.015625)"/>
       <path id="DejaVuSans-74" d="M 1172 4494 
L 1172 3500 
L 2356 3500 
L 2356 3053 
L 1172 3053 
L 1172 1153 
Q 1172 725 1289 603 
Q 1406 481 1766 481 
L 2356 481 
L 2356 0 
L 1766 0 
Q 1100 0 847 248 
Q 594 497 594 1153 
L 594 3053 
L 172 3053 
L 172 3500 
L 594 3500 
L 594 4494 
L 1172 4494 
z
" transform="scale(0.015625)"/>
       <path id="DejaVuSans-65" d="M 3597 1894 
L 3597 1613 
L 953 1613 
Q 991 1019 1311 708 
Q 1631 397 2203 397 
Q 2534 397 2845 478 
Q 3156 559 3463 722 
L 3463 178 
Q 3153 47 2828 -22 
Q 2503 -91 2169 -91 
Q 1331 -91 842 396 
Q 353 884 353 1716 
Q 353 2575 817 3079 
Q 1281 3584 2069 3584 
Q 2775 3584 3186 3129 
Q 3597 2675 3597 1894 
z
M 3022 2063 
Q 3016 2534 2758 2815 
Q 2500 3097 2075 3097 
Q 1594 3097 1305 2825 
Q 1016 2553 972 2059 
L 3022 2063 
z
" transform="scale(0.015625)"/>
       <path id="DejaVuSans-72" d="M 2631 2963 
Q 2534 3019 2420 3045 
Q 2306 3072 2169 3072 
Q 1681 3072 1420 2755 
Q 1159 2438 1159 1844 
L 1159 0 
L 581 0 
L 581 3500 
L 1159 3500 
L 1159 2956 
Q 1341 3275 1631 3429 
Q 1922 3584 2338 3584 
Q 2397 3584 2469 3576 
Q 2541 3569 2628 3553 
L 2631 2963 
z
" transform="scale(0.015625)"/>
       <path id="DejaVuSans-64" d="M 2906 2969 
L 2906 4863 
L 3481 4863 
L 3481 0 
L 2906 0 
L 2906 525 
Q 2725 213 2448 61 
Q 2172 -91 1784 -91 
Q 1150 -91 751 415 
Q 353 922 353 1747 
Q 353 2572 751 3078 
Q 1150 3584 1784 3584 
Q 2172 3584 2448 3432 
Q 2725 3281 2906 2969 
z
M 947 1747 
Q 947 1113 1208 752 
Q 1469 391 1925 391 
Q 2381 391 2643 752 
Q 2906 1113 2906 1747 
Q 2906 2381 2643 2742 
Q 2381 3103 1925 3103 
Q 1469 3103 1208 2742 
Q 947 2381 947 1747 
z
" transform="scale(0.015625)"/>
       <path id="DejaVuSans-20" transform="scale(0.015625)"/>
      </defs>
      <use xlink:href="#DejaVuSans-66"/>
      <use xlink:href="#DejaVuSans-69" x="35.205078"/>
      <use xlink:href="#DejaVuSans-6c" x="62.988281"/>
      <use xlink:href="#DejaVuSans-74" x="90.771484"/>
      <use xlink:href="#DejaVuSans-65" x="129.980469"/>
      <use xlink:href="#DejaVuSans-72" x="191.503906"/>
      <use xlink:href="#DejaVuSans-65" x="230.367188"/>
      <use xlink:href="#DejaVuSans-64" x="291.890625"/>
      <use xlink:href="#DejaVuSans-20" x="355.367188"/>
      <use xlink:href="#DejaVuSans-63" x="387.154297"/>
      <use xlink:href="#DejaVuSans-68" x="442.134766"/>
      <use xlink:href="#DejaVuSans-31" x="505.513672"/>
     </g>
    </g>
   </g>
  </g>
 </g>
 <defs>
  <clipPath id="p18596a7df0">
   <rect x="108" y="43.2" width="669.6" height="277.2"/>
  </clipPath>
 </defs>
</svg>
