<?xml version="1.0" encoding="utf-8" standalone="no"?>
<!DOCTYPE svg PUBLIC "-//W3C//DTD SVG 1.1//EN"
  "http://www.w3.org/Graphics/SVG/1.1/DTD/svg11.dtd">
<svg xmlns:xlink="http://www.w3.org/1999/xlink" width="864pt" height="360pt" viewBox="0 0 864 360" xmlns="http://www.w3.org/2000/svg" version="1.1">
 <metadata>
  <rdf:RDF xmlns:dc="http://purl.org/dc/elements/1.1/" xmlns:cc="http://creativecommons.org/ns#" xmlns:rdf="http://www.w3.org/1999/02/22-rdf-syntax-ns#">
   <cc:Work>
    <dc:type rdf:resource="http://purl.org/dc/dcmitype/StillImage"/>
    <dc:date>2024-12-23T12:50:41.863116</dc:date>
    <dc:format>image/svg+xml</dc:format>
    <dc:creator>
     <cc:Agent>
      <dc:title>Matplotlib v3.5.2, https://matplotlib.org/</dc:title>
     </cc:Agent>
    </dc:creator>
   </cc:Work>
  </rdf:RDF>
 </metadata>
 <defs>
  <style type="text/css">*{stroke-linejoin: round; stroke-linecap: butt}</style>
 </defs>
 <g id="figure_1">
  <g id="patch_1">
   <path d="M 0 360 
L 864 360 
L 864 0 
L 0 0 
z
" style="fill: #ffffff"/>
  </g>
  <g id="axes_1">
   <g id="patch_2">
    <path d="M 108 320.4 
L 777.6 320.4 
L 777.6 43.2 
L 108 43.2 
z
" style="fill: #ffffff"/>
   </g>
   <g id="matplotlib.axis_1">
    <g id="xtick_1">
     <g id="line2d_1">
      <defs>
       <path id="mb9d3881d1a" d="M 0 0 
L 0 -3.5 
" style="stroke: #000000; stroke-width: 0.8"/>
      </defs>
      <g>
       <use xlink:href="#mb9d3881d1a" x="139.885714" y="320.4" style="stroke: #000000; stroke-width: 0.8"/>
      </g>
     </g>
     <g id="text_1">
      <!-- 4.0 -->
      <g transform="translate(125.572902 337.577187)scale(0.18 -0.18)">
       <defs>
        <path id="DejaVuSans-34" d="M 2419 4116 
L 825 1625 
L 2419 1625 
L 2419 4116 
z
M 2253 4666 
L 3047 4666 
L 3047 1625 
L 3713 1625 
L 3713 1100 
L 3047 1100 
L 3047 0 
L 2419 0 
L 2419 1100 
L 313 1100 
L 313 1709 
L 2253 4666 
z
" transform="scale(0.015625)"/>
        <path id="DejaVuSans-2e" d="M 684 794 
L 1344 794 
L 1344 0 
L 684 0 
L 684 794 
z
" transform="scale(0.015625)"/>
        <path id="DejaVuSans-30" d="M 2034 4250 
Q 1547 4250 1301 3770 
Q 1056 3291 1056 2328 
Q 1056 1369 1301 889 
Q 1547 409 2034 409 
Q 2525 409 2770 889 
Q 3016 1369 3016 2328 
Q 3016 3291 2770 3770 
Q 2525 4250 2034 4250 
z
M 2034 4750 
Q 2819 4750 3233 4129 
Q 3647 3509 3647 2328 
Q 3647 1150 3233 529 
Q 2819 -91 2034 -91 
Q 1250 -91 836 529 
Q 422 1150 422 2328 
Q 422 3509 836 4129 
Q 1250 4750 2034 4750 
z
" transform="scale(0.015625)"/>
       </defs>
       <use xlink:href="#DejaVuSans-34"/>
       <use xlink:href="#DejaVuSans-2e" x="63.623047"/>
       <use xlink:href="#DejaVuSans-30" x="95.410156"/>
      </g>
     </g>
    </g>
    <g id="xtick_2">
     <g id="line2d_2">
      <g>
       <use xlink:href="#mb9d3881d1a" x="219.6" y="320.4" style="stroke: #000000; stroke-width: 0.8"/>
      </g>
     </g>
     <g id="text_2">
      <!-- 4.5 -->
      <g transform="translate(205.287187 337.577187)scale(0.18 -0.18)">
       <defs>
        <path id="DejaVuSans-35" d="M 691 4666 
L 3169 4666 
L 3169 4134 
L 1269 4134 
L 1269 2991 
Q 1406 3038 1543 3061 
Q 1681 3084 1819 3084 
Q 2600 3084 3056 2656 
Q 3513 2228 3513 1497 
Q 3513 744 3044 326 
Q 2575 -91 1722 -91 
Q 1428 -91 1123 -41 
Q 819 9 494 109 
L 494 744 
Q 775 591 1075 516 
Q 1375 441 1709 441 
Q 2250 441 2565 725 
Q 2881 1009 2881 1497 
Q 2881 1984 2565 2268 
Q 2250 2553 1709 2553 
Q 1456 2553 1204 2497 
Q 953 2441 691 2322 
L 691 4666 
z
" transform="scale(0.015625)"/>
       </defs>
       <use xlink:href="#DejaVuSans-34"/>
       <use xlink:href="#DejaVuSans-2e" x="63.623047"/>
       <use xlink:href="#DejaVuSans-35" x="95.410156"/>
      </g>
     </g>
    </g>
    <g id="xtick_3">
     <g id="line2d_3">
      <g>
       <use xlink:href="#mb9d3881d1a" x="299.314286" y="320.4" style="stroke: #000000; stroke-width: 0.8"/>
      </g>
     </g>
     <g id="text_3">
      <!-- 5.0 -->
      <g transform="translate(285.001473 337.577187)scale(0.18 -0.18)">
       <use xlink:href="#DejaVuSans-35"/>
       <use xlink:href="#DejaVuSans-2e" x="63.623047"/>
       <use xlink:href="#DejaVuSans-30" x="95.410156"/>
      </g>
     </g>
    </g>
    <g id="xtick_4">
     <g id="line2d_4">
      <g>
       <use xlink:href="#mb9d3881d1a" x="379.028571" y="320.4" style="stroke: #000000; stroke-width: 0.8"/>
      </g>
     </g>
     <g id="text_4">
      <!-- 5.5 -->
      <g transform="translate(364.715759 337.577187)scale(0.18 -0.18)">
       <use xlink:href="#DejaVuSans-35"/>
       <use xlink:href="#DejaVuSans-2e" x="63.623047"/>
       <use xlink:href="#DejaVuSans-35" x="95.410156"/>
      </g>
     </g>
    </g>
    <g id="xtick_5">
     <g id="line2d_5">
      <g>
       <use xlink:href="#mb9d3881d1a" x="458.742857" y="320.4" style="stroke: #000000; stroke-width: 0.8"/>
      </g>
     </g>
     <g id="text_5">
      <!-- 6.0 -->
      <g transform="translate(444.430045 337.577187)scale(0.18 -0.18)">
       <defs>
        <path id="DejaVuSans-36" d="M 2113 2584 
Q 1688 2584 1439 2293 
Q 1191 2003 1191 1497 
Q 1191 994 1439 701 
Q 1688 409 2113 409 
Q 2538 409 2786 701 
Q 3034 994 3034 1497 
Q 3034 2003 2786 2293 
Q 2538 2584 2113 2584 
z
M 3366 4563 
L 3366 3988 
Q 3128 4100 2886 4159 
Q 2644 4219 2406 4219 
Q 1781 4219 1451 3797 
Q 1122 3375 1075 2522 
Q 1259 2794 1537 2939 
Q 1816 3084 2150 3084 
Q 2853 3084 3261 2657 
Q 3669 2231 3669 1497 
Q 3669 778 3244 343 
Q 2819 -91 2113 -91 
Q 1303 -91 875 529 
Q 447 1150 447 2328 
Q 447 3434 972 4092 
Q 1497 4750 2381 4750 
Q 2619 4750 2861 4703 
Q 3103 4656 3366 4563 
z
" transform="scale(0.015625)"/>
       </defs>
       <use xlink:href="#DejaVuSans-36"/>
       <use xlink:href="#DejaVuSans-2e" x="63.623047"/>
       <use xlink:href="#DejaVuSans-30" x="95.410156"/>
      </g>
     </g>
    </g>
    <g id="xtick_6">
     <g id="line2d_6">
      <g>
       <use xlink:href="#mb9d3881d1a" x="538.457143" y="320.4" style="stroke: #000000; stroke-width: 0.8"/>
      </g>
     </g>
     <g id="text_6">
      <!-- 6.5 -->
      <g transform="translate(524.14433 337.577187)scale(0.18 -0.18)">
       <use xlink:href="#DejaVuSans-36"/>
       <use xlink:href="#DejaVuSans-2e" x="63.623047"/>
       <use xlink:href="#DejaVuSans-35" x="95.410156"/>
      </g>
     </g>
    </g>
    <g id="xtick_7">
     <g id="line2d_7">
      <g>
       <use xlink:href="#mb9d3881d1a" x="618.171429" y="320.4" style="stroke: #000000; stroke-width: 0.8"/>
      </g>
     </g>
     <g id="text_7">
      <!-- 7.0 -->
      <g transform="translate(603.858616 337.577187)scale(0.18 -0.18)">
       <defs>
        <path id="DejaVuSans-37" d="M 525 4666 
L 3525 4666 
L 3525 4397 
L 1831 0 
L 1172 0 
L 2766 4134 
L 525 4134 
L 525 4666 
z
" transform="scale(0.015625)"/>
       </defs>
       <use xlink:href="#DejaVuSans-37"/>
       <use xlink:href="#DejaVuSans-2e" x="63.623047"/>
       <use xlink:href="#DejaVuSans-30" x="95.410156"/>
      </g>
     </g>
    </g>
    <g id="xtick_8">
     <g id="line2d_8">
      <g>
       <use xlink:href="#mb9d3881d1a" x="697.885714" y="320.4" style="stroke: #000000; stroke-width: 0.8"/>
      </g>
     </g>
     <g id="text_8">
      <!-- 7.5 -->
      <g transform="translate(683.572902 337.577187)scale(0.18 -0.18)">
       <use xlink:href="#DejaVuSans-37"/>
       <use xlink:href="#DejaVuSans-2e" x="63.623047"/>
       <use xlink:href="#DejaVuSans-35" x="95.410156"/>
      </g>
     </g>
    </g>
    <g id="xtick_9">
     <g id="line2d_9">
      <g>
       <use xlink:href="#mb9d3881d1a" x="777.6" y="320.4" style="stroke: #000000; stroke-width: 0.8"/>
      </g>
     </g>
     <g id="text_9">
      <!-- 8.0 -->
      <g transform="translate(763.287187 337.577187)scale(0.18 -0.18)">
       <defs>
        <path id="DejaVuSans-38" d="M 2034 2216 
Q 1584 2216 1326 1975 
Q 1069 1734 1069 1313 
Q 1069 891 1326 650 
Q 1584 409 2034 409 
Q 2484 409 2743 651 
Q 3003 894 3003 1313 
Q 3003 1734 2745 1975 
Q 2488 2216 2034 2216 
z
M 1403 2484 
Q 997 2584 770 2862 
Q 544 3141 544 3541 
Q 544 4100 942 4425 
Q 1341 4750 2034 4750 
Q 2731 4750 3128 4425 
Q 3525 4100 3525 3541 
Q 3525 3141 3298 2862 
Q 3072 2584 2669 2484 
Q 3125 2378 3379 2068 
Q 3634 1759 3634 1313 
Q 3634 634 3220 271 
Q 2806 -91 2034 -91 
Q 1263 -91 848 271 
Q 434 634 434 1313 
Q 434 1759 690 2068 
Q 947 2378 1403 2484 
z
M 1172 3481 
Q 1172 3119 1398 2916 
Q 1625 2713 2034 2713 
Q 2441 2713 2670 2916 
Q 2900 3119 2900 3481 
Q 2900 3844 2670 4047 
Q 2441 4250 2034 4250 
Q 1625 4250 1398 4047 
Q 1172 3844 1172 3481 
z
" transform="scale(0.015625)"/>
       </defs>
       <use xlink:href="#DejaVuSans-38"/>
       <use xlink:href="#DejaVuSans-2e" x="63.623047"/>
       <use xlink:href="#DejaVuSans-30" x="95.410156"/>
      </g>
     </g>
    </g>
   </g>
   <g id="matplotlib.axis_2">
    <g id="ytick_1">
     <g id="line2d_10">
      <defs>
       <path id="m443c4c1784" d="M 0 0 
L 3.5 0 
" style="stroke: #000000; stroke-width: 0.8"/>
      </defs>
      <g>
       <use xlink:href="#m443c4c1784" x="108" y="320.4" style="stroke: #000000; stroke-width: 0.8"/>
      </g>
     </g>
     <g id="text_10">
      <!-- −100 -->
      <g transform="translate(55.059063 327.238594)scale(0.18 -0.18)">
       <defs>
        <path id="DejaVuSans-2212" d="M 678 2272 
L 4684 2272 
L 4684 1741 
L 678 1741 
L 678 2272 
z
" transform="scale(0.015625)"/>
        <path id="DejaVuSans-31" d="M 794 531 
L 1825 531 
L 1825 4091 
L 703 3866 
L 703 4441 
L 1819 4666 
L 2450 4666 
L 2450 531 
L 3481 531 
L 3481 0 
L 794 0 
L 794 531 
z
" transform="scale(0.015625)"/>
       </defs>
       <use xlink:href="#DejaVuSans-2212"/>
       <use xlink:href="#DejaVuSans-31" x="83.789062"/>
       <use xlink:href="#DejaVuSans-30" x="147.412109"/>
       <use xlink:href="#DejaVuSans-30" x="211.035156"/>
      </g>
     </g>
    </g>
    <g id="ytick_2">
     <g id="line2d_11">
      <g>
       <use xlink:href="#m443c4c1784" x="108" y="274.2" style="stroke: #000000; stroke-width: 0.8"/>
      </g>
     </g>
     <g id="text_11">
      <!-- −50 -->
      <g transform="translate(66.511562 281.038594)scale(0.18 -0.18)">
       <use xlink:href="#DejaVuSans-2212"/>
       <use xlink:href="#DejaVuSans-35" x="83.789062"/>
       <use xlink:href="#DejaVuSans-30" x="147.412109"/>
      </g>
     </g>
    </g>
    <g id="ytick_3">
     <g id="line2d_12">
      <g>
       <use xlink:href="#m443c4c1784" x="108" y="228" style="stroke: #000000; stroke-width: 0.8"/>
      </g>
     </g>
     <g id="text_12">
      <!-- 0 -->
      <g transform="translate(93.0475 234.838594)scale(0.18 -0.18)">
       <use xlink:href="#DejaVuSans-30"/>
      </g>
     </g>
    </g>
    <g id="ytick_4">
     <g id="line2d_13">
      <g>
       <use xlink:href="#m443c4c1784" x="108" y="181.8" style="stroke: #000000; stroke-width: 0.8"/>
      </g>
     </g>
     <g id="text_13">
      <!-- 50 -->
      <g transform="translate(81.595 188.638594)scale(0.18 -0.18)">
       <use xlink:href="#DejaVuSans-35"/>
       <use xlink:href="#DejaVuSans-30" x="63.623047"/>
      </g>
     </g>
    </g>
    <g id="ytick_5">
     <g id="line2d_14">
      <g>
       <use xlink:href="#m443c4c1784" x="108" y="135.6" style="stroke: #000000; stroke-width: 0.8"/>
      </g>
     </g>
     <g id="text_14">
      <!-- 100 -->
      <g transform="translate(70.1425 142.438594)scale(0.18 -0.18)">
       <use xlink:href="#DejaVuSans-31"/>
       <use xlink:href="#DejaVuSans-30" x="63.623047"/>
       <use xlink:href="#DejaVuSans-30" x="127.246094"/>
      </g>
     </g>
    </g>
    <g id="ytick_6">
     <g id="line2d_15">
      <g>
       <use xlink:href="#m443c4c1784" x="108" y="89.4" style="stroke: #000000; stroke-width: 0.8"/>
      </g>
     </g>
     <g id="text_15">
      <!-- 150 -->
      <g transform="translate(70.1425 96.238594)scale(0.18 -0.18)">
       <use xlink:href="#DejaVuSans-31"/>
       <use xlink:href="#DejaVuSans-35" x="63.623047"/>
       <use xlink:href="#DejaVuSans-30" x="127.246094"/>
      </g>
     </g>
    </g>
    <g id="ytick_7">
     <g id="line2d_16">
      <g>
       <use xlink:href="#m443c4c1784" x="108" y="43.2" style="stroke: #000000; stroke-width: 0.8"/>
      </g>
     </g>
     <g id="text_16">
      <!-- 200 -->
      <g transform="translate(70.1425 50.038594)scale(0.18 -0.18)">
       <defs>
        <path id="DejaVuSans-32" d="M 1228 531 
L 3431 531 
L 3431 0 
L 469 0 
L 469 531 
Q 828 903 1448 1529 
Q 2069 2156 2228 2338 
Q 2531 2678 2651 2914 
Q 2772 3150 2772 3378 
Q 2772 3750 2511 3984 
Q 2250 4219 1831 4219 
Q 1534 4219 1204 4116 
Q 875 4013 500 3803 
L 500 4441 
Q 881 4594 1212 4672 
Q 1544 4750 1819 4750 
Q 2544 4750 2975 4387 
Q 3406 4025 3406 3419 
Q 3406 3131 3298 2873 
Q 3191 2616 2906 2266 
Q 2828 2175 2409 1742 
Q 1991 1309 1228 531 
z
" transform="scale(0.015625)"/>
       </defs>
       <use xlink:href="#DejaVuSans-32"/>
       <use xlink:href="#DejaVuSans-30" x="63.623047"/>
       <use xlink:href="#DejaVuSans-30" x="127.246094"/>
      </g>
     </g>
    </g>
   </g>
   <g id="line2d_17">
    <path d="M 106.918508 203.976 
L 108.224658 216.912 
L 109.530807 223.38 
L 110.836956 232.62 
L 112.143105 240.012 
L 113.449254 245.556 
L 114.755404 252.024 
L 116.061553 250.176 
L 118.673851 252.024 
L 121.28615 252.024 
L 122.592299 249.252 
L 123.898448 247.404 
L 125.204597 250.176 
L 127.816896 248.328 
L 129.123045 249.252 
L 130.429194 252.024 
L 131.735343 251.1 
L 133.041492 251.1 
L 134.347642 247.404 
L 135.653791 248.328 
L 136.95994 248.328 
L 138.266089 251.1 
L 139.572238 248.328 
L 140.878388 250.176 
L 142.184537 253.872 
L 143.490686 249.252 
L 144.796835 249.252 
L 146.102984 250.176 
L 147.409134 249.252 
L 148.715283 251.1 
L 150.021432 249.252 
L 151.327581 249.252 
L 152.63373 250.176 
L 153.93988 255.72 
L 155.246029 254.796 
L 156.552178 256.644 
L 159.164476 252.948 
L 160.470626 255.72 
L 161.776775 255.72 
L 163.082924 256.644 
L 164.389073 258.492 
L 165.695222 252.948 
L 167.001372 253.872 
L 168.307521 253.872 
L 169.61367 252.024 
L 170.919819 249.252 
L 173.532118 247.404 
L 174.838267 250.176 
L 176.144416 246.48 
L 177.450565 250.176 
L 178.756714 250.176 
L 180.062864 247.404 
L 183.981311 247.404 
L 185.28746 248.328 
L 186.59361 247.404 
L 187.899759 249.252 
L 189.205908 248.328 
L 190.512057 250.176 
L 191.818207 247.404 
L 193.124356 249.252 
L 194.430505 245.556 
L 197.042803 249.252 
L 198.348953 250.176 
L 200.961251 248.328 
L 202.2674 245.556 
L 203.573549 245.556 
L 204.879699 246.48 
L 206.185848 244.632 
L 207.491997 239.088 
L 208.798146 241.86 
L 210.104295 242.784 
L 211.410445 244.632 
L 212.716594 249.252 
L 214.022743 247.404 
L 215.328892 250.176 
L 216.635041 249.252 
L 217.941191 239.088 
L 219.24734 235.392 
L 220.553489 232.62 
L 221.859638 233.544 
L 223.165787 232.62 
L 225.778086 240.012 
L 227.084235 238.164 
L 228.390384 235.392 
L 229.696533 236.316 
L 231.002683 235.392 
L 232.308832 231.696 
L 233.614981 233.544 
L 234.92113 259.416 
L 236.227279 265.884 
L 237.533429 218.76 
L 238.710128 -1 
M 243.459949 -1 
L 244.064175 149.46 
L 245.370324 217.836 
L 246.676473 237.24 
L 247.982622 249.252 
L 249.288771 254.796 
L 250.594921 255.72 
L 251.90107 259.416 
L 253.207219 258.492 
L 254.513368 259.416 
L 257.125667 259.416 
L 258.431816 254.796 
L 259.737965 252.024 
L 261.044114 252.024 
L 262.350263 246.48 
L 263.656413 243.708 
L 264.962562 248.328 
L 266.268711 242.784 
L 267.57486 239.088 
L 268.881009 234.468 
L 270.187159 232.62 
L 271.493308 227.076 
L 272.799457 220.608 
L 274.105606 215.064 
L 275.411755 212.292 
L 276.717905 203.052 
L 278.024054 199.356 
L 279.330203 191.964 
L 280.636352 192.888 
L 281.942501 187.344 
L 283.248651 187.344 
L 284.5548 191.964 
L 285.860949 201.204 
L 287.167098 214.14 
L 288.473247 223.38 
L 289.779397 230.772 
L 291.085546 237.24 
L 292.391695 241.86 
L 293.697844 248.328 
L 295.003993 252.948 
L 296.310143 250.176 
L 298.922441 252.024 
L 300.22859 249.252 
L 301.534739 250.176 
L 302.840889 252.024 
L 304.147038 248.328 
L 305.453187 245.556 
L 306.759336 247.404 
L 308.065485 245.556 
L 309.371635 241.86 
L 310.677784 241.86 
L 311.983933 244.632 
L 313.290082 243.708 
L 314.596231 244.632 
L 315.902381 246.48 
L 317.20853 246.48 
L 318.514679 245.556 
L 319.820828 250.176 
L 321.126977 247.404 
L 322.433127 247.404 
L 323.739276 244.632 
L 325.045425 247.404 
L 326.351574 252.948 
L 327.657723 252.024 
L 330.270022 248.328 
L 331.576171 250.176 
L 332.88232 249.252 
L 334.188469 247.404 
L 336.800768 251.1 
L 338.106917 251.1 
L 339.413066 246.48 
L 340.719215 248.328 
L 342.025365 252.948 
L 343.331514 253.872 
L 344.637663 255.72 
L 345.943812 252.948 
L 348.556111 251.1 
L 349.86226 248.328 
L 351.168409 244.632 
L 352.474558 248.328 
L 353.780707 248.328 
L 355.086857 246.48 
L 356.393006 248.328 
L 357.699155 247.404 
L 359.005304 249.252 
L 360.311453 250.176 
L 361.617603 246.48 
L 362.923752 249.252 
L 364.229901 247.404 
L 366.842199 247.404 
L 368.148349 248.328 
L 369.454498 248.328 
L 370.760647 249.252 
L 372.066796 247.404 
L 373.372945 248.328 
L 374.679095 253.872 
L 375.985244 250.176 
L 377.291393 248.328 
L 378.597542 252.024 
L 379.903691 246.48 
L 381.209841 248.328 
L 383.822139 253.872 
L 385.128288 252.948 
L 386.434437 251.1 
L 387.740587 250.176 
L 389.046736 241.86 
L 390.352885 237.24 
L 391.659034 237.24 
L 392.965183 234.468 
L 394.271333 237.24 
L 395.577482 241.86 
L 396.883631 241.86 
L 398.18978 242.784 
L 399.495929 238.164 
L 402.108228 241.86 
L 403.414377 240.936 
L 404.720526 239.088 
L 406.026675 255.72 
L 407.332825 274.2 
L 408.638974 261.264 
L 409.945123 85.704 
L 410.226231 -1 
M 414.950405 -1 
L 415.16972 61.68 
L 416.475869 212.292 
L 417.782018 232.62 
L 419.088167 247.404 
L 420.394317 256.644 
L 421.700466 262.188 
L 423.006615 265.884 
L 424.312764 268.656 
L 425.618913 270.504 
L 426.925063 268.656 
L 428.231212 264.036 
L 429.537361 264.96 
L 430.84351 259.416 
L 432.149659 260.34 
L 434.761958 258.492 
L 436.068107 252.948 
L 437.374256 251.1 
L 438.680405 246.48 
L 439.986555 240.012 
L 441.292704 237.24 
L 442.598853 233.544 
L 443.905002 228.924 
L 446.517301 217.836 
L 447.82345 208.596 
L 449.129599 207.672 
L 450.435748 201.204 
L 451.741897 198.432 
L 453.048047 197.508 
L 454.354196 195.66 
L 455.660345 198.432 
L 456.966494 205.824 
L 458.272643 214.14 
L 460.884942 236.316 
L 462.191091 240.936 
L 463.49724 248.328 
L 464.803389 256.644 
L 466.109539 259.416 
L 467.415688 256.644 
L 470.027986 258.492 
L 473.946434 255.72 
L 475.252583 255.72 
L 476.558732 252.948 
L 477.864881 252.948 
L 479.171031 252.024 
L 480.47718 254.796 
L 481.783329 255.72 
L 483.089478 254.796 
L 484.395627 252.024 
L 485.701777 250.176 
L 487.007926 254.796 
L 488.314075 254.796 
L 489.620224 252.024 
L 490.926373 251.1 
L 492.232523 248.328 
L 493.538672 251.1 
L 494.844821 251.1 
L 496.15097 250.176 
L 497.457119 250.176 
L 498.763269 253.872 
L 500.069418 250.176 
L 501.375567 251.1 
L 502.681716 249.252 
L 503.987865 253.872 
L 506.600164 248.328 
L 507.906313 252.024 
L 509.212462 256.644 
L 510.518611 256.644 
L 511.824761 255.72 
L 513.13091 259.416 
L 515.743208 253.872 
L 517.049357 250.176 
L 518.355507 251.1 
L 519.661656 253.872 
L 520.967805 249.252 
L 522.273954 249.252 
L 523.580103 248.328 
L 524.886253 249.252 
L 527.498551 247.404 
L 528.8047 247.404 
L 530.110849 242.784 
L 531.416999 247.404 
L 532.723148 249.252 
L 534.029297 249.252 
L 535.335446 245.556 
L 536.641595 249.252 
L 539.253894 249.252 
L 540.560043 244.632 
L 541.866192 245.556 
L 543.172341 245.556 
L 544.478491 240.936 
L 545.78464 240.012 
L 547.090789 241.86 
L 548.396938 242.784 
L 549.703087 244.632 
L 551.009237 244.632 
L 552.315386 241.86 
L 553.621535 238.164 
L 554.927684 237.24 
L 556.233833 238.164 
L 557.539983 240.936 
L 558.846132 238.164 
L 561.45843 243.708 
L 562.764579 242.784 
L 565.376878 239.088 
L 567.989176 226.152 
L 569.295325 222.456 
L 570.601475 221.532 
L 571.907624 229.848 
L 573.213773 235.392 
L 575.826071 233.544 
L 577.132221 234.468 
L 578.43837 229.848 
L 579.744519 232.62 
L 581.050668 233.544 
L 582.356817 230.772 
L 583.662967 232.62 
L 584.969116 262.188 
L 586.275265 270.504 
L 587.581414 191.04 
L 588.399077 -1 
M 593.293883 -1 
L 594.11216 179.028 
L 595.418309 228 
L 596.724459 236.316 
L 598.030608 249.252 
L 599.336757 258.492 
L 601.949055 258.492 
L 603.255205 259.416 
L 604.561354 258.492 
L 605.867503 255.72 
L 607.173652 256.644 
L 608.479802 253.872 
L 609.785951 252.948 
L 611.0921 251.1 
L 612.398249 244.632 
L 613.704398 242.784 
L 615.010548 243.708 
L 617.622846 236.316 
L 618.928995 235.392 
L 622.847443 218.76 
L 624.153592 215.988 
L 625.459741 203.976 
L 630.684338 189.192 
L 631.990487 191.04 
L 633.296636 191.964 
L 634.602786 194.736 
L 635.908935 201.204 
L 638.521233 223.38 
L 639.827382 232.62 
L 641.133532 240.012 
L 642.439681 240.936 
L 643.74583 243.708 
L 645.051979 245.556 
L 646.358128 242.784 
L 647.664278 246.48 
L 648.970427 244.632 
L 650.276576 243.708 
L 651.582725 241.86 
L 652.888874 241.86 
L 654.195024 239.088 
L 655.501173 240.936 
L 656.807322 240.936 
L 658.113471 239.088 
L 659.41962 240.012 
L 660.72577 241.86 
L 662.031919 240.936 
L 667.256516 240.936 
L 669.868814 242.784 
L 671.174963 241.86 
L 672.481112 247.404 
L 673.787262 246.48 
L 675.093411 246.48 
L 676.39956 243.708 
L 677.705709 242.784 
L 679.011858 242.784 
L 680.318008 241.86 
L 681.624157 241.86 
L 682.930306 240.012 
L 684.236455 244.632 
L 685.542604 240.936 
L 686.848754 239.088 
L 688.154903 243.708 
L 689.461052 243.708 
L 690.767201 240.936 
L 692.07335 243.708 
L 693.3795 242.784 
L 694.685649 245.556 
L 695.991798 245.556 
L 698.604096 243.708 
L 699.910246 243.708 
L 701.216395 245.556 
L 702.522544 243.708 
L 703.828693 242.784 
L 705.134842 240.012 
L 706.440992 241.86 
L 707.747141 239.088 
L 709.05329 242.784 
L 710.359439 241.86 
L 711.665588 242.784 
L 712.971738 241.86 
L 714.277887 244.632 
L 715.584036 241.86 
L 716.890185 240.936 
L 718.196334 235.392 
L 719.502484 240.012 
L 720.808633 239.088 
L 722.114782 239.088 
L 723.420931 241.86 
L 724.72708 241.86 
L 726.03323 238.164 
L 727.339379 241.86 
L 728.645528 240.012 
L 729.951677 241.86 
L 731.257826 242.784 
L 732.563976 239.088 
L 733.870125 238.164 
L 736.482423 238.164 
L 739.094722 241.86 
L 740.400871 240.936 
L 743.013169 244.632 
L 746.931617 225.228 
L 748.237766 228 
L 749.543915 233.544 
L 750.850064 238.164 
L 752.156214 239.088 
L 753.462363 238.164 
L 754.768512 236.316 
L 756.074661 235.392 
L 757.38081 237.24 
L 759.993109 235.392 
L 761.299258 260.34 
L 762.605407 273.276 
L 763.911556 234.468 
L 765.304893 -1 
M 769.959638 -1 
L 770.442302 126.36 
L 771.748452 219.684 
L 773.054601 238.164 
L 774.36075 251.1 
L 775.666899 258.492 
L 776.973048 263.112 
L 778.279198 264.96 
L 778.279198 264.96 
" clip-path="url(#paacb3fa21b)" style="fill: none; stroke: #1f77b4; stroke-width: 1.5; stroke-linecap: square"/>
   </g>
   <g id="line2d_18">
    <path d="M 106.918508 205.109876 
L 108.224658 215.505536 
L 110.836956 232.370907 
L 112.143105 239.764649 
L 113.449254 246.003781 
L 114.755404 250.164318 
L 116.061553 251.091273 
L 117.367702 251.325662 
L 118.673851 252.022497 
L 119.98 252.257791 
L 121.28615 251.569559 
L 122.592299 249.726813 
L 123.898448 248.808565 
L 125.204597 249.507828 
L 126.510746 249.514612 
L 127.816896 249.059929 
L 129.123045 249.99179 
L 130.429194 251.386205 
L 131.735343 251.626183 
L 133.041492 250.480734 
L 134.347642 248.873865 
L 135.653791 248.422585 
L 136.95994 249.357901 
L 138.266089 250.062819 
L 139.572238 249.844346 
L 142.184537 252.181244 
L 143.490686 250.809625 
L 144.796835 249.900631 
L 148.715283 250.642417 
L 150.021432 250.197938 
L 151.327581 249.985089 
L 152.63373 251.851866 
L 153.93988 254.643269 
L 155.246029 256.049293 
L 156.552178 256.300935 
L 157.858327 255.39819 
L 159.164476 254.727052 
L 163.082924 257.56821 
L 164.389073 257.361426 
L 165.695222 255.307208 
L 167.001372 254.408545 
L 168.307521 254.203426 
L 169.61367 252.612839 
L 170.919819 250.56077 
L 172.225968 249.202205 
L 173.532118 249.23013 
L 174.838267 249.489529 
L 176.144416 249.287386 
L 177.450565 250.240685 
L 178.756714 250.501406 
L 180.062864 249.145533 
L 181.369013 248.483047 
L 182.675162 248.513926 
L 186.59361 249.301556 
L 189.205908 250.290085 
L 190.512057 250.322713 
L 191.818207 249.893554 
L 193.124356 249.233582 
L 194.430505 248.342772 
L 195.736654 248.8381 
L 197.042803 250.488539 
L 198.348953 251.215065 
L 199.655102 250.786651 
L 200.961251 249.43427 
L 202.2674 247.850895 
L 203.573549 247.4225 
L 204.879699 247.456057 
L 206.185848 245.41054 
L 207.491997 242.902919 
L 208.798146 243.167167 
L 210.104295 244.817258 
L 212.716594 249.502852 
L 214.022743 250.4593 
L 215.328892 251.184479 
L 216.635041 248.90636 
L 217.941191 242.700916 
L 219.24734 237.650119 
L 220.553489 235.601942 
L 221.859638 235.170358 
L 223.165787 235.89334 
L 225.778086 240.802895 
L 227.084235 240.138416 
L 228.390384 238.549398 
L 229.696533 238.114815 
L 231.002683 236.986644 
L 232.308832 235.395859 
L 233.614981 241.889436 
L 234.92113 256.929352 
L 236.227279 254.874583 
L 237.533429 171.969107 
L 238.519438 -1 
M 243.613284 -1 
L 244.064175 87.760374 
L 245.370324 208.130214 
L 246.676473 237.947206 
L 247.982622 250.207331 
L 249.288771 256.229573 
L 250.594921 259.016916 
L 251.90107 260.879343 
L 253.207219 261.585841 
L 255.819517 262.071989 
L 257.125667 260.927615 
L 258.431816 257.934258 
L 259.737965 255.401908 
L 261.044114 253.330554 
L 262.350263 249.872186 
L 263.656413 248.260797 
L 264.962562 248.496377 
L 266.268711 245.958919 
L 267.57486 241.572418 
L 270.187159 234.413259 
L 271.493308 229.561593 
L 272.799457 223.553864 
L 275.411755 213.383207 
L 278.024054 201.129274 
L 279.330203 196.733203 
L 281.942501 191.402858 
L 283.248651 191.161587 
L 284.5548 195.770254 
L 285.860949 204.766863 
L 287.167098 215.841418 
L 288.473247 225.528924 
L 289.779397 233.136386 
L 291.085546 239.356811 
L 293.697844 250.408575 
L 295.003993 253.622931 
L 298.922441 253.557991 
L 300.22859 252.610375 
L 302.840889 253.022251 
L 304.147038 250.916765 
L 305.453187 249.041346 
L 306.759336 248.782007 
L 308.065485 247.36676 
L 309.371635 245.026619 
L 310.677784 244.764596 
L 311.983933 245.887708 
L 313.290082 246.316966 
L 314.596231 246.976388 
L 315.902381 248.096987 
L 317.20853 248.292779 
L 318.514679 248.94978 
L 319.820828 250.299007 
L 321.126977 250.030474 
L 322.433127 248.6062 
L 323.739276 247.8742 
L 325.045425 249.913493 
L 326.351574 253.107095 
L 327.657723 253.528024 
L 328.963873 251.869299 
L 330.270022 250.902936 
L 331.576171 251.090955 
L 332.88232 250.585373 
L 334.188469 249.84821 
L 335.494619 250.727484 
L 336.800768 252.068215 
L 338.106917 251.329421 
L 339.413066 249.435121 
L 340.719215 250.312336 
L 342.025365 253.268085 
L 343.331514 255.299387 
L 344.637663 255.713262 
L 345.943812 254.509732 
L 348.556111 251.639531 
L 349.86226 249.048902 
L 351.168409 247.381948 
L 352.474558 248.25569 
L 353.780707 248.667147 
L 355.086857 248.154342 
L 356.393006 248.334296 
L 357.699155 248.745028 
L 359.005304 249.617561 
L 360.311453 249.565917 
L 361.617603 248.590115 
L 362.923752 248.538179 
L 364.229901 248.25513 
L 365.53605 247.740989 
L 366.842199 247.91978 
L 369.454498 248.739241 
L 370.760647 248.686957 
L 372.066796 248.172693 
L 373.372945 249.506472 
L 374.679095 251.533317 
L 377.291393 249.581295 
L 378.597542 249.529476 
L 379.903691 248.091814 
L 381.209841 248.271335 
L 382.51599 250.761062 
L 383.822139 252.558018 
L 385.128288 252.276228 
L 386.434437 250.839716 
L 387.740587 247.786506 
L 389.046736 242.192623 
L 390.352885 237.754092 
L 391.659034 235.856937 
L 392.965183 235.115184 
L 394.271333 236.914857 
L 395.577482 239.869982 
L 396.883631 241.208585 
L 398.18978 240.46869 
L 399.495929 238.805324 
L 400.802079 238.990513 
L 402.108228 240.100283 
L 403.414377 239.593659 
L 404.720526 242.552668 
L 406.026675 254.983337 
L 407.332825 265.104691 
L 408.638974 219.324758 
L 410.069779 -1 
M 415.143885 -1 
L 415.16972 4.527714 
L 416.475869 178.202617 
L 417.782018 229.67942 
L 419.088167 244.42815 
L 420.394317 254.095834 
L 421.700466 260.068498 
L 423.006615 263.96317 
L 424.312764 266.703875 
L 425.618913 267.828641 
L 426.925063 266.182494 
L 428.231212 263.61346 
L 429.537361 261.507565 
L 430.84351 259.171835 
L 432.149659 257.992296 
L 433.455809 257.506974 
L 434.761958 255.405893 
L 437.374256 248.435555 
L 438.680405 244.028347 
L 439.986555 238.929478 
L 442.598853 231.276853 
L 443.905002 226.644142 
L 445.211151 221.319861 
L 447.82345 208.59668 
L 450.435748 200.037476 
L 451.741897 196.799665 
L 453.048047 195.180407 
L 454.354196 194.717721 
L 455.660345 197.490622 
L 456.966494 203.961129 
L 458.272643 212.743257 
L 459.578793 223.144022 
L 460.884942 232.622438 
L 464.803389 253.213723 
L 466.109539 255.999871 
L 467.415688 255.553729 
L 468.721837 255.571307 
L 470.027986 256.052613 
L 471.334135 255.611653 
L 472.640285 254.710435 
L 473.946434 254.041964 
L 475.252583 253.144243 
L 476.558732 251.786275 
L 477.864881 250.892063 
L 479.171031 251.154607 
L 480.47718 252.573908 
L 481.783329 253.532963 
L 483.089478 252.64577 
L 484.395627 250.605325 
L 485.701777 250.183624 
L 487.007926 252.073661 
L 488.314075 252.579427 
L 489.620224 251.007915 
L 490.926373 249.207116 
L 492.232523 248.332017 
L 493.538672 249.075607 
L 494.844821 249.589873 
L 496.15097 249.181799 
L 497.457119 249.930371 
L 498.763269 250.911571 
L 500.069418 250.277381 
L 501.375567 249.413782 
L 502.681716 249.937752 
L 503.987865 251.15627 
L 505.294015 250.297313 
L 506.600164 249.208856 
L 507.906313 251.586874 
L 509.212462 254.890341 
L 510.518611 255.885228 
L 511.824761 256.419507 
L 513.13091 257.417147 
L 514.437059 256.337118 
L 515.743208 253.410387 
L 517.049357 251.17792 
L 518.355507 251.487684 
L 519.661656 252.029643 
L 520.967805 250.49376 
L 522.273954 249.189999 
L 523.580103 249.04232 
L 524.886253 249.126684 
L 526.192402 248.750051 
L 527.498551 248.143381 
L 528.8047 246.844631 
L 530.110849 245.777758 
L 531.416999 247.483719 
L 532.723148 249.65247 
L 534.029297 249.280965 
L 535.335446 248.44816 
L 537.947745 250.48046 
L 539.253894 249.418472 
L 540.560043 247.432994 
L 541.866192 246.833979 
L 543.172341 246.004376 
L 544.478491 243.558137 
L 545.78464 242.498212 
L 547.090789 243.517551 
L 548.396938 244.999104 
L 549.703087 246.24982 
L 551.009237 246.114649 
L 552.315386 243.900539 
L 553.621535 241.224439 
L 554.927684 240.165299 
L 557.539983 242.204692 
L 558.846132 242.300123 
L 560.152281 243.781308 
L 561.45843 245.724198 
L 562.764579 245.587741 
L 564.070729 244.064887 
L 565.376878 241.155585 
L 566.683027 235.935787 
L 567.989176 230.253441 
L 569.295325 226.649499 
L 570.601475 227.433912 
L 571.907624 232.837632 
L 573.213773 237.54761 
L 574.519922 238.329801 
L 575.826071 237.956156 
L 577.132221 237.11963 
L 578.43837 235.820176 
L 581.050668 236.914311 
L 582.356817 236.304811 
L 583.662967 244.010209 
L 584.969116 261.416464 
L 586.275265 253.180534 
L 587.581414 138.914379 
L 588.305444 -1 
M 593.429357 -1 
L 594.11216 124.50489 
L 595.418309 222.981594 
L 596.724459 242.685818 
L 598.030608 253.61053 
L 599.336757 261.530698 
L 600.642906 263.905292 
L 603.255205 264.49164 
L 604.561354 263.62734 
L 605.867503 262.299354 
L 607.173652 261.431659 
L 608.479802 260.100231 
L 609.785951 258.536046 
L 611.0921 255.815084 
L 612.398249 251.706324 
L 613.704398 249.443746 
L 615.010548 248.565334 
L 616.316697 246.068069 
L 618.928995 240.374921 
L 620.235144 236.02401 
L 621.541294 230.51619 
L 622.847443 225.69945 
L 624.153592 219.95678 
L 625.459741 212.364172 
L 626.76589 206.617616 
L 629.378189 199.276638 
L 630.684338 196.989206 
L 631.990487 197.240805 
L 633.296636 198.876435 
L 634.602786 202.127092 
L 635.908935 208.840778 
L 639.827382 238.67201 
L 641.133532 244.915822 
L 642.439681 247.923673 
L 643.74583 250.00557 
L 645.051979 250.930519 
L 646.358128 250.929526 
L 647.664278 251.6196 
L 648.970427 251.383749 
L 650.276576 249.990984 
L 652.888874 247.661753 
L 654.195024 246.72531 
L 655.501173 246.941999 
L 656.807322 246.925834 
L 658.113471 246.214829 
L 659.41962 246.656999 
L 660.72577 247.559359 
L 662.031919 247.535927 
L 663.338068 247.279719 
L 665.950366 247.224046 
L 667.256516 247.424618 
L 668.562665 248.085488 
L 669.868814 248.513677 
L 671.174963 249.633204 
L 672.481112 251.906091 
L 673.787262 252.79136 
L 675.093411 251.827031 
L 676.39956 250.168128 
L 677.705709 248.969674 
L 680.318008 247.954205 
L 681.624157 247.213239 
L 682.930306 247.394817 
L 684.236455 248.267965 
L 685.542604 247.060707 
L 686.848754 246.31407 
L 688.154903 248.107079 
L 689.461052 248.512761 
L 690.767201 247.762143 
L 692.07335 248.165251 
L 693.3795 249.029114 
L 694.685649 250.122757 
L 695.991798 250.52221 
L 698.604096 249.007655 
L 699.910246 249.172705 
L 701.216395 249.567678 
L 702.522544 248.806603 
L 703.828693 247.12051 
L 705.134842 245.895428 
L 706.440992 245.362387 
L 707.747141 245.290417 
L 709.05329 246.141548 
L 710.359439 246.760811 
L 711.665588 246.686236 
L 714.277887 247.458696 
L 715.584036 246.457793 
L 716.890185 243.839177 
L 718.196334 241.912879 
L 720.808633 243.140365 
L 722.114782 243.522213 
L 723.420931 244.827508 
L 724.72708 244.515282 
L 726.03323 243.509567 
L 728.645528 244.268804 
L 729.951677 244.878822 
L 731.257826 244.795483 
L 732.563976 242.863823 
L 733.870125 241.393873 
L 735.176274 241.078668 
L 736.482423 241.456243 
L 737.788572 242.757631 
L 739.094722 243.827866 
L 740.400871 244.204983 
L 741.70702 245.275017 
L 743.013169 244.959002 
L 744.319318 240.484973 
L 745.625468 233.931966 
L 746.931617 229.689015 
L 748.237766 230.759156 
L 749.543915 235.294424 
L 750.850064 239.136855 
L 752.156214 240.438484 
L 753.462363 239.661347 
L 754.768512 238.19148 
L 756.074661 237.645919 
L 757.38081 238.0247 
L 758.68696 237.710858 
L 759.993109 243.172431 
L 761.299258 258.567453 
L 762.605407 261.488962 
L 763.911556 192.800993 
L 765.111333 -1 
M 770.121352 -1 
L 770.442302 64.200251 
L 771.748452 201.568176 
L 773.054601 237.296876 
L 774.36075 250.157387 
L 775.666899 258.167744 
L 776.973048 262.713983 
L 778.279198 264.72014 
L 778.279198 264.72014 
" clip-path="url(#paacb3fa21b)" style="fill: none; stroke: #ff7f0e; stroke-width: 1.5; stroke-linecap: square"/>
   </g>
   <g id="patch_3">
    <path d="M 108 320.4 
L 108 43.2 
" style="fill: none; stroke: #000000; stroke-width: 2; stroke-linejoin: miter; stroke-linecap: square"/>
   </g>
   <g id="patch_4">
    <path d="M 777.6 320.4 
L 777.6 43.2 
" style="fill: none; stroke: #000000; stroke-width: 2; stroke-linejoin: miter; stroke-linecap: square"/>
   </g>
   <g id="patch_5">
    <path d="M 108 320.4 
L 777.6 320.4 
" style="fill: none; stroke: #000000; stroke-width: 2; stroke-linejoin: miter; stroke-linecap: square"/>
   </g>
   <g id="patch_6">
    <path d="M 108 43.2 
L 777.6 43.2 
" style="fill: none; stroke: #000000; stroke-width: 2; stroke-linejoin: miter; stroke-linecap: square"/>
   </g>
   <g id="legend_1">
    <g id="patch_7">
     <path d="M 604.954687 110.941875 
L 765 110.941875 
Q 768.6 110.941875 768.6 107.341875 
L 768.6 55.8 
Q 768.6 52.2 765 52.2 
L 604.954687 52.2 
Q 601.354687 52.2 601.354687 55.8 
L 601.354687 107.341875 
Q 601.354687 110.941875 604.954687 110.941875 
z
" style="fill: #ffffff; opacity: 0.8; stroke: #cccccc; stroke-linejoin: miter"/>
    </g>
    <g id="line2d_19">
     <path d="M 608.554688 66.777187 
L 626.554688 66.777187 
L 644.554688 66.777187 
" style="fill: none; stroke: #1f77b4; stroke-width: 1.5; stroke-linecap: square"/>
    </g>
    <g id="text_17">
     <!-- ch_1 -->
     <g transform="translate(658.954687 73.077187)scale(0.18 -0.18)">
      <defs>
       <path id="DejaVuSans-63" d="M 3122 3366 
L 3122 2828 
Q 2878 2963 2633 3030 
Q 2388 3097 2138 3097 
Q 1578 3097 1268 2742 
Q 959 2388 959 1747 
Q 959 1106 1268 751 
Q 1578 397 2138 397 
Q 2388 397 2633 464 
Q 2878 531 3122 666 
L 3122 134 
Q 2881 22 2623 -34 
Q 2366 -91 2075 -91 
Q 1284 -91 818 406 
Q 353 903 353 1747 
Q 353 2603 823 3093 
Q 1294 3584 2113 3584 
Q 2378 3584 2631 3529 
Q 2884 3475 3122 3366 
z
" transform="scale(0.015625)"/>
       <path id="DejaVuSans-68" d="M 3513 2113 
L 3513 0 
L 2938 0 
L 2938 2094 
Q 2938 2591 2744 2837 
Q 2550 3084 2163 3084 
Q 1697 3084 1428 2787 
Q 1159 2491 1159 1978 
L 1159 0 
L 581 0 
L 581 4863 
L 1159 4863 
L 1159 2956 
Q 1366 3272 1645 3428 
Q 1925 3584 2291 3584 
Q 2894 3584 3203 3211 
Q 3513 2838 3513 2113 
z
" transform="scale(0.015625)"/>
       <path id="DejaVuSans-5f" d="M 3263 -1063 
L 3263 -1509 
L -63 -1509 
L -63 -1063 
L 3263 -1063 
z
" transform="scale(0.015625)"/>
      </defs>
      <use xlink:href="#DejaVuSans-63"/>
      <use xlink:href="#DejaVuSans-68" x="54.980469"/>
      <use xlink:href="#DejaVuSans-5f" x="118.359375"/>
      <use xlink:href="#DejaVuSans-31" x="168.359375"/>
     </g>
    </g>
    <g id="line2d_20">
     <path d="M 608.554688 93.698437 
L 626.554688 93.698437 
L 644.554688 93.698437 
" style="fill: none; stroke: #ff7f0e; stroke-width: 1.5; stroke-linecap: square"/>
    </g>
    <g id="text_18">
     <!-- filtered ch1 -->
     <g transform="translate(658.954687 99.998437)scale(0.18 -0.18)">
      <defs>
       <path id="DejaVuSans-66" d="M 2375 4863 
L 2375 4384 
L 1825 4384 
Q 1516 4384 1395 4259 
Q 1275 4134 1275 3809 
L 1275 3500 
L 2222 3500 
L 2222 3053 
L 1275 3053 
L 1275 0 
L 697 0 
L 697 3053 
L 147 3053 
L 147 3500 
L 697 3500 
L 697 3744 
Q 697 4328 969 4595 
Q 1241 4863 1831 4863 
L 2375 4863 
z
" transform="scale(0.015625)"/>
       <path id="DejaVuSans-69" d="M 603 3500 
L 1178 3500 
L 1178 0 
L 603 0 
L 603 3500 
z
M 603 4863 
L 1178 4863 
L 1178 4134 
L 603 4134 
L 603 4863 
z
" transform="scale(0.015625)"/>
       <path id="DejaVuSans-6c" d="M 603 4863 
L 1178 4863 
L 1178 0 
L 603 0 
L 603 4863 
z
" transform="scale(0.015625)"/>
       <path id="DejaVuSans-74" d="M 1172 4494 
L 1172 3500 
L 2356 3500 
L 2356 3053 
L 1172 3053 
L 1172 1153 
Q 1172 725 1289 603 
Q 1406 481 1766 481 
L 2356 481 
L 2356 0 
L 1766 0 
Q 1100 0 847 248 
Q 594 497 594 1153 
L 594 3053 
L 172 3053 
L 172 3500 
L 594 3500 
L 594 4494 
L 1172 4494 
z
" transform="scale(0.015625)"/>
       <path id="DejaVuSans-65" d="M 3597 1894 
L 3597 1613 
L 953 1613 
Q 991 1019 1311 708 
Q 1631 397 2203 397 
Q 2534 397 2845 478 
Q 3156 559 3463 722 
L 3463 178 
Q 3153 47 2828 -22 
Q 2503 -91 2169 -91 
Q 1331 -91 842 396 
Q 353 884 353 1716 
Q 353 2575 817 3079 
Q 1281 3584 2069 3584 
Q 2775 3584 3186 3129 
Q 3597 2675 3597 1894 
z
M 3022 2063 
Q 3016 2534 2758 2815 
Q 2500 3097 2075 3097 
Q 1594 3097 1305 2825 
Q 1016 2553 972 2059 
L 3022 2063 
z
" transform="scale(0.015625)"/>
       <path id="DejaVuSans-72" d="M 2631 2963 
Q 2534 3019 2420 3045 
Q 2306 3072 2169 3072 
Q 1681 3072 1420 2755 
Q 1159 2438 1159 1844 
L 1159 0 
L 581 0 
L 581 3500 
L 1159 3500 
L 1159 2956 
Q 1341 3275 1631 3429 
Q 1922 3584 2338 3584 
Q 2397 3584 2469 3576 
Q 2541 3569 2628 3553 
L 2631 2963 
z
" transform="scale(0.015625)"/>
       <path id="DejaVuSans-64" d="M 2906 2969 
L 2906 4863 
L 3481 4863 
L 3481 0 
L 2906 0 
L 2906 525 
Q 2725 213 2448 61 
Q 2172 -91 1784 -91 
Q 1150 -91 751 415 
Q 353 922 353 1747 
Q 353 2572 751 3078 
Q 1150 3584 1784 3584 
Q 2172 3584 2448 3432 
Q 2725 3281 2906 2969 
z
M 947 1747 
Q 947 1113 1208 752 
Q 1469 391 1925 391 
Q 2381 391 2643 752 
Q 2906 1113 2906 1747 
Q 2906 2381 2643 2742 
Q 2381 3103 1925 3103 
Q 1469 3103 1208 2742 
Q 947 2381 947 1747 
z
" transform="scale(0.015625)"/>
       <path id="DejaVuSans-20" transform="scale(0.015625)"/>
      </defs>
      <use xlink:href="#DejaVuSans-66"/>
      <use xlink:href="#DejaVuSans-69" x="35.205078"/>
      <use xlink:href="#DejaVuSans-6c" x="62.988281"/>
      <use xlink:href="#DejaVuSans-74" x="90.771484"/>
      <use xlink:href="#DejaVuSans-65" x="129.980469"/>
      <use xlink:href="#DejaVuSans-72" x="191.503906"/>
      <use xlink:href="#DejaVuSans-65" x="230.367188"/>
      <use xlink:href="#DejaVuSans-64" x="291.890625"/>
      <use xlink:href="#DejaVuSans-20" x="355.367188"/>
      <use xlink:href="#DejaVuSans-63" x="387.154297"/>
      <use xlink:href="#DejaVuSans-68" x="442.134766"/>
      <use xlink:href="#DejaVuSans-31" x="505.513672"/>
     </g>
    </g>
   </g>
  </g>
 </g>
 <defs>
  <clipPath id="paacb3fa21b">
   <rect x="108" y="43.2" width="669.6" height="277.2"/>
  </clipPath>
 </defs>
</svg>
