<?xml version="1.0" encoding="utf-8" standalone="no"?>
<!DOCTYPE svg PUBLIC "-//W3C//DTD SVG 1.1//EN"
  "http://www.w3.org/Graphics/SVG/1.1/DTD/svg11.dtd">
<svg xmlns:xlink="http://www.w3.org/1999/xlink" width="864pt" height="360pt" viewBox="0 0 864 360" xmlns="http://www.w3.org/2000/svg" version="1.1">
 <metadata>
  <rdf:RDF xmlns:dc="http://purl.org/dc/elements/1.1/" xmlns:cc="http://creativecommons.org/ns#" xmlns:rdf="http://www.w3.org/1999/02/22-rdf-syntax-ns#">
   <cc:Work>
    <dc:type rdf:resource="http://purl.org/dc/dcmitype/StillImage"/>
    <dc:date>2024-11-21T15:52:14.539075</dc:date>
    <dc:format>image/svg+xml</dc:format>
    <dc:creator>
     <cc:Agent>
      <dc:title>Matplotlib v3.5.2, https://matplotlib.org/</dc:title>
     </cc:Agent>
    </dc:creator>
   </cc:Work>
  </rdf:RDF>
 </metadata>
 <defs>
  <style type="text/css">*{stroke-linejoin: round; stroke-linecap: butt}</style>
 </defs>
 <g id="figure_1">
  <g id="patch_1">
   <path d="M 0 360 
L 864 360 
L 864 0 
L 0 0 
z
" style="fill: #ffffff"/>
  </g>
  <g id="axes_1">
   <g id="patch_2">
    <path d="M 108 320.4 
L 777.6 320.4 
L 777.6 43.2 
L 108 43.2 
z
" style="fill: #ffffff"/>
   </g>
   <g id="matplotlib.axis_1">
    <g id="xtick_1">
     <g id="line2d_1">
      <defs>
       <path id="m23e7d070bf" d="M 0 0 
L 0 -3.5 
" style="stroke: #000000; stroke-width: 0.8"/>
      </defs>
      <g>
       <use xlink:href="#m23e7d070bf" x="139.885714" y="320.4" style="stroke: #000000; stroke-width: 0.8"/>
      </g>
     </g>
     <g id="text_1">
      <!-- 4.0 -->
      <g transform="translate(125.572902 337.577187)scale(0.18 -0.18)">
       <defs>
        <path id="DejaVuSans-34" d="M 2419 4116 
L 825 1625 
L 2419 1625 
L 2419 4116 
z
M 2253 4666 
L 3047 4666 
L 3047 1625 
L 3713 1625 
L 3713 1100 
L 3047 1100 
L 3047 0 
L 2419 0 
L 2419 1100 
L 313 1100 
L 313 1709 
L 2253 4666 
z
" transform="scale(0.015625)"/>
        <path id="DejaVuSans-2e" d="M 684 794 
L 1344 794 
L 1344 0 
L 684 0 
L 684 794 
z
" transform="scale(0.015625)"/>
        <path id="DejaVuSans-30" d="M 2034 4250 
Q 1547 4250 1301 3770 
Q 1056 3291 1056 2328 
Q 1056 1369 1301 889 
Q 1547 409 2034 409 
Q 2525 409 2770 889 
Q 3016 1369 3016 2328 
Q 3016 3291 2770 3770 
Q 2525 4250 2034 4250 
z
M 2034 4750 
Q 2819 4750 3233 4129 
Q 3647 3509 3647 2328 
Q 3647 1150 3233 529 
Q 2819 -91 2034 -91 
Q 1250 -91 836 529 
Q 422 1150 422 2328 
Q 422 3509 836 4129 
Q 1250 4750 2034 4750 
z
" transform="scale(0.015625)"/>
       </defs>
       <use xlink:href="#DejaVuSans-34"/>
       <use xlink:href="#DejaVuSans-2e" x="63.623047"/>
       <use xlink:href="#DejaVuSans-30" x="95.410156"/>
      </g>
     </g>
    </g>
    <g id="xtick_2">
     <g id="line2d_2">
      <g>
       <use xlink:href="#m23e7d070bf" x="219.6" y="320.4" style="stroke: #000000; stroke-width: 0.8"/>
      </g>
     </g>
     <g id="text_2">
      <!-- 4.5 -->
      <g transform="translate(205.287187 337.577187)scale(0.18 -0.18)">
       <defs>
        <path id="DejaVuSans-35" d="M 691 4666 
L 3169 4666 
L 3169 4134 
L 1269 4134 
L 1269 2991 
Q 1406 3038 1543 3061 
Q 1681 3084 1819 3084 
Q 2600 3084 3056 2656 
Q 3513 2228 3513 1497 
Q 3513 744 3044 326 
Q 2575 -91 1722 -91 
Q 1428 -91 1123 -41 
Q 819 9 494 109 
L 494 744 
Q 775 591 1075 516 
Q 1375 441 1709 441 
Q 2250 441 2565 725 
Q 2881 1009 2881 1497 
Q 2881 1984 2565 2268 
Q 2250 2553 1709 2553 
Q 1456 2553 1204 2497 
Q 953 2441 691 2322 
L 691 4666 
z
" transform="scale(0.015625)"/>
       </defs>
       <use xlink:href="#DejaVuSans-34"/>
       <use xlink:href="#DejaVuSans-2e" x="63.623047"/>
       <use xlink:href="#DejaVuSans-35" x="95.410156"/>
      </g>
     </g>
    </g>
    <g id="xtick_3">
     <g id="line2d_3">
      <g>
       <use xlink:href="#m23e7d070bf" x="299.314286" y="320.4" style="stroke: #000000; stroke-width: 0.8"/>
      </g>
     </g>
     <g id="text_3">
      <!-- 5.0 -->
      <g transform="translate(285.001473 337.577187)scale(0.18 -0.18)">
       <use xlink:href="#DejaVuSans-35"/>
       <use xlink:href="#DejaVuSans-2e" x="63.623047"/>
       <use xlink:href="#DejaVuSans-30" x="95.410156"/>
      </g>
     </g>
    </g>
    <g id="xtick_4">
     <g id="line2d_4">
      <g>
       <use xlink:href="#m23e7d070bf" x="379.028571" y="320.4" style="stroke: #000000; stroke-width: 0.8"/>
      </g>
     </g>
     <g id="text_4">
      <!-- 5.5 -->
      <g transform="translate(364.715759 337.577187)scale(0.18 -0.18)">
       <use xlink:href="#DejaVuSans-35"/>
       <use xlink:href="#DejaVuSans-2e" x="63.623047"/>
       <use xlink:href="#DejaVuSans-35" x="95.410156"/>
      </g>
     </g>
    </g>
    <g id="xtick_5">
     <g id="line2d_5">
      <g>
       <use xlink:href="#m23e7d070bf" x="458.742857" y="320.4" style="stroke: #000000; stroke-width: 0.8"/>
      </g>
     </g>
     <g id="text_5">
      <!-- 6.0 -->
      <g transform="translate(444.430045 337.577187)scale(0.18 -0.18)">
       <defs>
        <path id="DejaVuSans-36" d="M 2113 2584 
Q 1688 2584 1439 2293 
Q 1191 2003 1191 1497 
Q 1191 994 1439 701 
Q 1688 409 2113 409 
Q 2538 409 2786 701 
Q 3034 994 3034 1497 
Q 3034 2003 2786 2293 
Q 2538 2584 2113 2584 
z
M 3366 4563 
L 3366 3988 
Q 3128 4100 2886 4159 
Q 2644 4219 2406 4219 
Q 1781 4219 1451 3797 
Q 1122 3375 1075 2522 
Q 1259 2794 1537 2939 
Q 1816 3084 2150 3084 
Q 2853 3084 3261 2657 
Q 3669 2231 3669 1497 
Q 3669 778 3244 343 
Q 2819 -91 2113 -91 
Q 1303 -91 875 529 
Q 447 1150 447 2328 
Q 447 3434 972 4092 
Q 1497 4750 2381 4750 
Q 2619 4750 2861 4703 
Q 3103 4656 3366 4563 
z
" transform="scale(0.015625)"/>
       </defs>
       <use xlink:href="#DejaVuSans-36"/>
       <use xlink:href="#DejaVuSans-2e" x="63.623047"/>
       <use xlink:href="#DejaVuSans-30" x="95.410156"/>
      </g>
     </g>
    </g>
    <g id="xtick_6">
     <g id="line2d_6">
      <g>
       <use xlink:href="#m23e7d070bf" x="538.457143" y="320.4" style="stroke: #000000; stroke-width: 0.8"/>
      </g>
     </g>
     <g id="text_6">
      <!-- 6.5 -->
      <g transform="translate(524.14433 337.577187)scale(0.18 -0.18)">
       <use xlink:href="#DejaVuSans-36"/>
       <use xlink:href="#DejaVuSans-2e" x="63.623047"/>
       <use xlink:href="#DejaVuSans-35" x="95.410156"/>
      </g>
     </g>
    </g>
    <g id="xtick_7">
     <g id="line2d_7">
      <g>
       <use xlink:href="#m23e7d070bf" x="618.171429" y="320.4" style="stroke: #000000; stroke-width: 0.8"/>
      </g>
     </g>
     <g id="text_7">
      <!-- 7.0 -->
      <g transform="translate(603.858616 337.577187)scale(0.18 -0.18)">
       <defs>
        <path id="DejaVuSans-37" d="M 525 4666 
L 3525 4666 
L 3525 4397 
L 1831 0 
L 1172 0 
L 2766 4134 
L 525 4134 
L 525 4666 
z
" transform="scale(0.015625)"/>
       </defs>
       <use xlink:href="#DejaVuSans-37"/>
       <use xlink:href="#DejaVuSans-2e" x="63.623047"/>
       <use xlink:href="#DejaVuSans-30" x="95.410156"/>
      </g>
     </g>
    </g>
    <g id="xtick_8">
     <g id="line2d_8">
      <g>
       <use xlink:href="#m23e7d070bf" x="697.885714" y="320.4" style="stroke: #000000; stroke-width: 0.8"/>
      </g>
     </g>
     <g id="text_8">
      <!-- 7.5 -->
      <g transform="translate(683.572902 337.577187)scale(0.18 -0.18)">
       <use xlink:href="#DejaVuSans-37"/>
       <use xlink:href="#DejaVuSans-2e" x="63.623047"/>
       <use xlink:href="#DejaVuSans-35" x="95.410156"/>
      </g>
     </g>
    </g>
    <g id="xtick_9">
     <g id="line2d_9">
      <g>
       <use xlink:href="#m23e7d070bf" x="777.6" y="320.4" style="stroke: #000000; stroke-width: 0.8"/>
      </g>
     </g>
     <g id="text_9">
      <!-- 8.0 -->
      <g transform="translate(763.287187 337.577187)scale(0.18 -0.18)">
       <defs>
        <path id="DejaVuSans-38" d="M 2034 2216 
Q 1584 2216 1326 1975 
Q 1069 1734 1069 1313 
Q 1069 891 1326 650 
Q 1584 409 2034 409 
Q 2484 409 2743 651 
Q 3003 894 3003 1313 
Q 3003 1734 2745 1975 
Q 2488 2216 2034 2216 
z
M 1403 2484 
Q 997 2584 770 2862 
Q 544 3141 544 3541 
Q 544 4100 942 4425 
Q 1341 4750 2034 4750 
Q 2731 4750 3128 4425 
Q 3525 4100 3525 3541 
Q 3525 3141 3298 2862 
Q 3072 2584 2669 2484 
Q 3125 2378 3379 2068 
Q 3634 1759 3634 1313 
Q 3634 634 3220 271 
Q 2806 -91 2034 -91 
Q 1263 -91 848 271 
Q 434 634 434 1313 
Q 434 1759 690 2068 
Q 947 2378 1403 2484 
z
M 1172 3481 
Q 1172 3119 1398 2916 
Q 1625 2713 2034 2713 
Q 2441 2713 2670 2916 
Q 2900 3119 2900 3481 
Q 2900 3844 2670 4047 
Q 2441 4250 2034 4250 
Q 1625 4250 1398 4047 
Q 1172 3844 1172 3481 
z
" transform="scale(0.015625)"/>
       </defs>
       <use xlink:href="#DejaVuSans-38"/>
       <use xlink:href="#DejaVuSans-2e" x="63.623047"/>
       <use xlink:href="#DejaVuSans-30" x="95.410156"/>
      </g>
     </g>
    </g>
   </g>
   <g id="matplotlib.axis_2">
    <g id="ytick_1">
     <g id="line2d_10">
      <defs>
       <path id="m07f12e99e4" d="M 0 0 
L 3.5 0 
" style="stroke: #000000; stroke-width: 0.8"/>
      </defs>
      <g>
       <use xlink:href="#m07f12e99e4" x="108" y="320.4" style="stroke: #000000; stroke-width: 0.8"/>
      </g>
     </g>
     <g id="text_10">
      <!-- −100 -->
      <g transform="translate(55.059063 327.238594)scale(0.18 -0.18)">
       <defs>
        <path id="DejaVuSans-2212" d="M 678 2272 
L 4684 2272 
L 4684 1741 
L 678 1741 
L 678 2272 
z
" transform="scale(0.015625)"/>
        <path id="DejaVuSans-31" d="M 794 531 
L 1825 531 
L 1825 4091 
L 703 3866 
L 703 4441 
L 1819 4666 
L 2450 4666 
L 2450 531 
L 3481 531 
L 3481 0 
L 794 0 
L 794 531 
z
" transform="scale(0.015625)"/>
       </defs>
       <use xlink:href="#DejaVuSans-2212"/>
       <use xlink:href="#DejaVuSans-31" x="83.789062"/>
       <use xlink:href="#DejaVuSans-30" x="147.412109"/>
       <use xlink:href="#DejaVuSans-30" x="211.035156"/>
      </g>
     </g>
    </g>
    <g id="ytick_2">
     <g id="line2d_11">
      <g>
       <use xlink:href="#m07f12e99e4" x="108" y="274.2" style="stroke: #000000; stroke-width: 0.8"/>
      </g>
     </g>
     <g id="text_11">
      <!-- −50 -->
      <g transform="translate(66.511562 281.038594)scale(0.18 -0.18)">
       <use xlink:href="#DejaVuSans-2212"/>
       <use xlink:href="#DejaVuSans-35" x="83.789062"/>
       <use xlink:href="#DejaVuSans-30" x="147.412109"/>
      </g>
     </g>
    </g>
    <g id="ytick_3">
     <g id="line2d_12">
      <g>
       <use xlink:href="#m07f12e99e4" x="108" y="228" style="stroke: #000000; stroke-width: 0.8"/>
      </g>
     </g>
     <g id="text_12">
      <!-- 0 -->
      <g transform="translate(93.0475 234.838594)scale(0.18 -0.18)">
       <use xlink:href="#DejaVuSans-30"/>
      </g>
     </g>
    </g>
    <g id="ytick_4">
     <g id="line2d_13">
      <g>
       <use xlink:href="#m07f12e99e4" x="108" y="181.8" style="stroke: #000000; stroke-width: 0.8"/>
      </g>
     </g>
     <g id="text_13">
      <!-- 50 -->
      <g transform="translate(81.595 188.638594)scale(0.18 -0.18)">
       <use xlink:href="#DejaVuSans-35"/>
       <use xlink:href="#DejaVuSans-30" x="63.623047"/>
      </g>
     </g>
    </g>
    <g id="ytick_5">
     <g id="line2d_14">
      <g>
       <use xlink:href="#m07f12e99e4" x="108" y="135.6" style="stroke: #000000; stroke-width: 0.8"/>
      </g>
     </g>
     <g id="text_14">
      <!-- 100 -->
      <g transform="translate(70.1425 142.438594)scale(0.18 -0.18)">
       <use xlink:href="#DejaVuSans-31"/>
       <use xlink:href="#DejaVuSans-30" x="63.623047"/>
       <use xlink:href="#DejaVuSans-30" x="127.246094"/>
      </g>
     </g>
    </g>
    <g id="ytick_6">
     <g id="line2d_15">
      <g>
       <use xlink:href="#m07f12e99e4" x="108" y="89.4" style="stroke: #000000; stroke-width: 0.8"/>
      </g>
     </g>
     <g id="text_15">
      <!-- 150 -->
      <g transform="translate(70.1425 96.238594)scale(0.18 -0.18)">
       <use xlink:href="#DejaVuSans-31"/>
       <use xlink:href="#DejaVuSans-35" x="63.623047"/>
       <use xlink:href="#DejaVuSans-30" x="127.246094"/>
      </g>
     </g>
    </g>
    <g id="ytick_7">
     <g id="line2d_16">
      <g>
       <use xlink:href="#m07f12e99e4" x="108" y="43.2" style="stroke: #000000; stroke-width: 0.8"/>
      </g>
     </g>
     <g id="text_16">
      <!-- 200 -->
      <g transform="translate(70.1425 50.038594)scale(0.18 -0.18)">
       <defs>
        <path id="DejaVuSans-32" d="M 1228 531 
L 3431 531 
L 3431 0 
L 469 0 
L 469 531 
Q 828 903 1448 1529 
Q 2069 2156 2228 2338 
Q 2531 2678 2651 2914 
Q 2772 3150 2772 3378 
Q 2772 3750 2511 3984 
Q 2250 4219 1831 4219 
Q 1534 4219 1204 4116 
Q 875 4013 500 3803 
L 500 4441 
Q 881 4594 1212 4672 
Q 1544 4750 1819 4750 
Q 2544 4750 2975 4387 
Q 3406 4025 3406 3419 
Q 3406 3131 3298 2873 
Q 3191 2616 2906 2266 
Q 2828 2175 2409 1742 
Q 1991 1309 1228 531 
z
" transform="scale(0.015625)"/>
       </defs>
       <use xlink:href="#DejaVuSans-32"/>
       <use xlink:href="#DejaVuSans-30" x="63.623047"/>
       <use xlink:href="#DejaVuSans-30" x="127.246094"/>
      </g>
     </g>
    </g>
   </g>
   <g id="line2d_17">
    <path d="M 444.976925 -1 
L 445.211151 9.936 
L 446.517301 45.048 
L 447.905752 -1 
M 460.399105 -1 
L 460.884942 3.468 
L 462.191091 5.316 
L 463.49724 8.088 
L 464.781903 -1 
M 464.827263 -1 
L 466.109539 7.164 
L 467.415688 2.544 
L 467.972325 -1 
M 470.487243 -1 
L 471.334135 4.392 
L 472.181028 -1 
M 474.867219 -1 
L 475.252583 2.544 
L 476.558732 5.316 
L 477.864881 4.392 
L 479.171031 4.392 
L 480.47718 13.632 
L 481.783329 10.86 
L 483.089478 20.1 
L 484.395627 7.164 
L 485.701777 21.024 
L 487.007926 19.176 
L 488.314075 18.252 
L 489.620224 15.48 
L 490.926373 18.252 
L 492.232523 18.252 
L 493.538672 9.936 
L 494.844821 21.948 
L 496.15097 29.34 
L 497.457119 22.872 
L 498.763269 20.1 
L 500.069418 22.872 
L 501.375567 29.34 
L 502.681716 17.328 
L 503.987865 30.264 
L 505.294015 21.024 
L 506.600164 28.416 
L 507.906313 18.252 
L 509.212462 34.884 
L 510.518611 26.568 
L 513.13091 28.416 
L 514.437059 28.416 
L 515.743208 22.872 
L 517.049357 24.72 
L 518.355507 34.884 
L 519.661656 22.872 
L 520.967805 25.644 
L 522.273954 29.34 
L 523.580103 34.884 
L 526.192402 21.948 
L 527.498551 29.34 
L 528.8047 29.34 
L 530.110849 43.2 
L 531.416999 35.808 
L 532.723148 44.124 
L 534.029297 35.808 
L 535.335446 32.112 
L 536.641595 33.036 
L 537.947745 48.744 
L 539.253894 45.972 
L 540.560043 46.896 
L 541.866192 51.516 
L 543.172341 46.896 
L 544.478491 45.972 
L 545.78464 44.124 
L 547.090789 49.668 
L 548.396938 53.364 
L 549.703087 51.516 
L 551.009237 51.516 
L 552.315386 42.276 
L 553.621535 45.048 
L 554.927684 41.352 
L 556.233833 54.288 
L 557.539983 52.44 
L 558.846132 45.972 
L 560.152281 41.352 
L 561.45843 48.744 
L 562.764579 36.732 
L 564.070729 18.252 
L 565.376878 35.808 
L 566.683027 97.716 
L 567.989176 129.132 
L 570.601475 45.972 
L 571.907624 35.808 
L 573.213773 46.896 
L 574.519922 50.592 
L 575.826071 63.528 
L 577.132221 69.996 
L 578.43837 57.984 
L 579.744519 55.212 
L 581.050668 67.224 
L 582.356817 63.528 
L 583.662967 63.528 
L 584.969116 57.984 
L 586.275265 69.996 
L 587.581414 69.072 
L 588.887563 65.376 
L 590.193713 68.148 
L 591.499862 65.376 
L 592.806011 70.92 
L 594.11216 68.148 
L 595.418309 71.844 
L 596.724459 65.376 
L 598.030608 61.68 
L 599.336757 67.224 
L 600.642906 69.072 
L 601.949055 69.996 
L 603.255205 67.224 
L 604.561354 80.16 
L 605.867503 67.224 
L 607.173652 74.616 
L 608.479802 67.224 
L 609.785951 81.084 
L 611.0921 83.856 
L 612.398249 72.768 
L 613.704398 78.312 
L 615.010548 77.388 
L 616.316697 91.248 
L 617.622846 76.464 
L 618.928995 84.78 
L 620.235144 78.312 
L 621.541294 78.312 
L 622.847443 85.704 
L 624.153592 94.944 
L 625.459741 88.476 
L 626.76589 76.464 
L 628.07204 86.628 
L 629.378189 83.856 
L 630.684338 86.628 
L 631.990487 91.248 
L 633.296636 99.564 
L 634.602786 94.02 
L 635.908935 94.944 
L 637.215084 96.792 
L 638.521233 97.716 
L 639.827382 97.716 
L 641.133532 91.248 
L 642.439681 97.716 
L 643.74583 93.096 
L 645.051979 95.868 
L 646.358128 87.552 
L 647.664278 104.184 
L 648.970427 98.64 
L 650.276576 96.792 
L 651.582725 99.564 
L 652.888874 97.716 
L 654.195024 97.716 
L 655.501173 99.564 
L 656.807322 102.336 
L 658.113471 101.412 
L 659.41962 91.248 
L 660.72577 94.944 
L 662.031919 100.488 
L 663.338068 90.324 
L 664.644217 67.224 
L 665.950366 70.92 
L 667.256516 122.664 
L 668.562665 164.244 
L 669.868814 129.132 
L 671.174963 85.704 
L 672.481112 81.084 
L 673.787262 95.868 
L 675.093411 106.956 
L 676.39956 120.816 
L 677.705709 112.5 
L 679.011858 109.728 
L 680.318008 107.88 
L 681.624157 111.576 
L 682.930306 106.956 
L 684.236455 108.804 
L 685.542604 109.728 
L 686.848754 112.5 
L 688.154903 106.956 
L 689.461052 106.956 
L 690.767201 112.5 
L 692.07335 106.956 
L 693.3795 107.88 
L 694.685649 106.956 
L 695.991798 119.892 
L 697.297947 118.044 
L 698.604096 115.272 
L 699.910246 119.892 
L 701.216395 117.12 
L 702.522544 126.36 
L 703.828693 118.044 
L 705.134842 124.512 
L 706.440992 112.5 
L 707.747141 122.664 
L 709.05329 121.74 
L 710.359439 124.512 
L 711.665588 119.892 
L 712.971738 116.196 
L 714.277887 124.512 
L 715.584036 118.044 
L 716.890185 122.664 
L 718.196334 112.5 
L 719.502484 126.36 
L 720.808633 125.436 
L 722.114782 129.132 
L 723.420931 127.284 
L 724.72708 124.512 
L 726.03323 130.056 
L 727.339379 121.74 
L 728.645528 129.132 
L 729.951677 126.36 
L 731.257826 121.74 
L 732.563976 121.74 
L 733.870125 99.564 
L 735.176274 133.752 
L 736.482423 191.04 
L 737.788572 184.572 
L 739.094722 121.74 
L 740.400871 103.26 
L 741.70702 118.968 
L 743.013169 130.056 
L 744.319318 124.512 
L 745.625468 122.664 
L 749.543915 133.752 
L 750.850064 126.36 
L 752.156214 134.676 
L 754.768512 130.98 
L 756.074661 127.284 
L 757.38081 140.22 
L 759.993109 132.828 
L 761.299258 135.6 
L 762.605407 135.6 
L 763.911556 138.372 
L 765.217706 138.372 
L 766.523855 149.46 
L 767.830004 146.688 
L 769.136153 142.068 
L 770.442302 141.144 
L 771.748452 148.536 
L 773.054601 148.536 
L 774.36075 144.84 
L 775.666899 136.524 
L 776.973048 141.144 
L 778.279198 135.6 
L 778.279198 135.6 
" clip-path="url(#p33e8f424f8)" style="fill: none; stroke: #1f77b4; stroke-width: 1.5; stroke-linecap: square"/>
   </g>
   <g id="line2d_18">
    <path d="M 106.918508 228.300704 
L 108.224658 228.068365 
L 109.530807 227.614883 
L 110.836956 225.554194 
L 112.143105 226.96823 
L 113.449254 232.318928 
L 114.755404 232.135224 
L 116.061553 227.803054 
L 117.367702 228.331356 
L 118.673851 230.486069 
L 119.98 225.258133 
L 121.28615 211.723489 
L 122.592299 206.052077 
L 123.898448 229.726841 
L 125.204597 265.191723 
L 126.510746 269.480668 
L 127.816896 239.821621 
L 129.123045 212.943528 
L 130.429194 207.326337 
L 131.735343 212.343996 
L 133.041492 218.063454 
L 134.347642 220.788661 
L 135.653791 220.519568 
L 136.95994 218.873127 
L 138.266089 216.542292 
L 139.572238 214.451016 
L 140.878388 216.988254 
L 142.184537 222.767963 
L 143.490686 224.3981 
L 144.796835 225.574622 
L 146.102984 228.376489 
L 147.409134 228.18366 
L 148.715283 224.996097 
L 150.021432 223.43376 
L 151.327581 222.572614 
L 152.63373 221.950622 
L 153.93988 224.801748 
L 155.246029 226.505958 
L 156.552178 226.60122 
L 157.858327 228.783499 
L 159.164476 232.359765 
L 160.470626 234.326987 
L 161.776775 233.992135 
L 163.082924 231.12418 
L 164.389073 229.188093 
L 165.695222 231.648849 
L 167.001372 233.19342 
L 168.307521 231.742781 
L 169.61367 231.223906 
L 170.919819 231.867772 
L 172.225968 231.364356 
L 173.532118 231.792635 
L 174.838267 233.152587 
L 176.144416 233.365192 
L 177.450565 231.044429 
L 178.756714 229.424278 
L 180.062864 232.431722 
L 181.369013 232.67474 
L 182.675162 229.460316 
L 183.981311 230.873434 
L 185.28746 233.911075 
L 186.59361 232.798226 
L 187.899759 230.99987 
L 189.205908 231.056993 
L 190.512057 231.35258 
L 191.818207 232.117619 
L 193.124356 231.735097 
L 194.430505 229.511999 
L 195.736654 228.220315 
L 197.042803 227.167033 
L 198.348953 226.352142 
L 199.655102 227.85463 
L 200.961251 229.133486 
L 202.2674 228.109702 
L 203.573549 225.938267 
L 204.879699 225.622172 
L 206.185848 224.620406 
L 207.491997 223.394963 
L 208.798146 225.641832 
L 210.104295 225.355005 
L 211.410445 225.999475 
L 212.716594 230.347233 
L 214.022743 229.851272 
L 215.328892 226.821583 
L 216.635041 227.033159 
L 219.24734 226.554078 
L 220.553489 228.404406 
L 221.859638 229.568971 
L 223.165787 230.278764 
L 224.471937 227.068779 
L 225.778086 214.164009 
L 227.084235 204.038448 
L 228.390384 223.026086 
L 229.696533 263.965919 
L 231.002683 281.350937 
L 232.308832 257.394135 
L 233.614981 224.435504 
L 234.92113 211.350037 
L 236.227279 213.979727 
L 237.533429 218.926565 
L 238.839578 221.108544 
L 240.145727 222.373655 
L 241.451876 225.724891 
L 242.758025 228.390242 
L 244.064175 227.5977 
L 245.370324 228.891255 
L 246.676473 235.042899 
L 247.982622 237.967622 
L 249.288771 233.738414 
L 250.594921 230.209265 
L 251.90107 231.307164 
L 253.207219 230.102102 
L 254.513368 225.670066 
L 255.819517 225.865045 
L 257.125667 229.994028 
L 258.431816 228.124002 
L 259.737965 224.643956 
L 261.044114 227.407875 
L 262.350263 229.716747 
L 263.656413 230.646559 
L 264.962562 231.814295 
L 266.268711 231.602942 
L 267.57486 229.781485 
L 268.881009 229.814908 
L 270.187159 233.782196 
L 271.493308 234.522332 
L 272.799457 229.0323 
L 274.105606 226.321082 
L 275.411755 231.008662 
L 276.717905 234.317021 
L 278.024054 230.93314 
L 279.330203 228.480001 
L 280.636352 231.577585 
L 281.942501 232.14087 
L 283.248651 232.941838 
L 284.5548 237.907467 
L 285.860949 240.338735 
L 287.167098 237.694622 
L 288.473247 232.978105 
L 289.779397 231.50216 
L 291.085546 228.646765 
L 292.391695 224.180897 
L 293.697844 223.18653 
L 295.003993 221.505641 
L 296.310143 218.445204 
L 297.616292 220.242194 
L 298.922441 223.893584 
L 301.534739 223.36146 
L 302.840889 224.490891 
L 304.147038 224.240615 
L 305.453187 224.227601 
L 306.759336 225.837823 
L 309.371635 228.152855 
L 310.677784 227.240605 
L 311.983933 225.41047 
L 313.290082 228.206421 
L 314.596231 231.470426 
L 315.902381 233.123453 
L 317.20853 236.16847 
L 318.514679 236.216445 
L 319.820828 231.881345 
L 321.126977 229.862137 
L 322.433127 229.927789 
L 323.739276 227.689265 
L 325.045425 224.532533 
L 326.351574 223.460557 
L 327.657723 226.090303 
L 328.963873 230.573736 
L 332.88232 238.282806 
L 334.188469 234.472632 
L 335.494619 229.974968 
L 336.800768 231.488775 
L 338.106917 235.087017 
L 339.413066 234.301658 
L 340.719215 231.21166 
L 342.025365 232.284986 
L 343.331514 232.670598 
L 344.637663 230.05846 
L 345.943812 228.837533 
L 347.249961 229.93178 
L 348.556111 229.645162 
L 349.86226 227.977642 
L 351.168409 223.081181 
L 352.474558 208.718742 
L 353.780707 204.756286 
L 356.393006 270.766169 
L 357.699155 256.192431 
L 359.005304 218.754524 
L 360.311453 204.883408 
L 361.617603 211.114044 
L 362.923752 216.656395 
L 364.229901 219.662423 
L 365.53605 225.907088 
L 366.842199 231.001353 
L 368.148349 227.553181 
L 369.454498 222.261532 
L 370.760647 222.980368 
L 372.066796 228.323653 
L 373.372945 232.747348 
L 374.679095 231.631417 
L 375.985244 232.13682 
L 377.291393 232.415522 
L 378.597542 226.461485 
L 379.903691 223.052673 
L 381.209841 222.882048 
L 382.51599 220.174575 
L 383.822139 220.012217 
L 385.128288 223.549937 
L 386.434437 224.781701 
L 387.740587 224.862472 
L 390.352885 229.424897 
L 391.659034 227.207481 
L 392.965183 226.610932 
L 394.271333 227.866217 
L 396.883631 219.300154 
L 398.18978 221.490739 
L 399.495929 225.071024 
L 400.802079 224.958976 
L 402.108228 227.160563 
L 403.414377 231.444754 
L 404.720526 228.802515 
L 406.026675 222.005818 
L 407.332825 220.525629 
L 408.638974 223.43792 
L 409.945123 222.426658 
L 411.251272 219.108816 
L 412.557421 218.335363 
L 413.863571 218.48927 
L 415.16972 217.953509 
L 416.475869 219.038052 
L 417.782018 221.973869 
L 419.088167 224.219935 
L 420.394317 223.466221 
L 421.700466 221.329701 
L 423.006615 224.047349 
L 424.312764 227.923139 
L 426.925063 225.982043 
L 428.231212 228.019107 
L 429.537361 227.749214 
L 430.84351 226.789339 
L 432.149659 227.911458 
L 433.455809 226.72655 
L 434.761958 226.23759 
L 436.068107 228.292558 
L 437.374256 228.96443 
L 438.680405 229.408186 
L 439.986555 228.699805 
L 441.292704 218.292266 
L 442.598853 202.805548 
L 443.905002 211.807632 
L 445.211151 250.842498 
L 446.517301 271.862127 
L 447.82345 247.608501 
L 449.129599 213.655602 
L 450.435748 203.72941 
L 451.741897 209.28291 
L 453.048047 213.222083 
L 454.354196 215.315913 
L 455.660345 218.567383 
L 456.966494 222.514478 
L 458.272643 225.771181 
L 459.578793 230.647478 
L 460.884942 237.374354 
L 462.191091 241.100793 
L 463.49724 239.747782 
L 464.803389 237.011306 
L 466.109539 236.818352 
L 467.415688 233.624908 
L 468.721837 227.892959 
L 470.027986 227.938493 
L 471.334135 229.603498 
L 472.640285 225.264963 
L 473.946434 222.545874 
L 475.252583 226.990222 
L 476.558732 230.281994 
L 477.864881 229.649181 
L 479.171031 230.866772 
L 480.47718 233.934756 
L 481.783329 236.312124 
L 483.089478 236.150866 
L 484.395627 234.605973 
L 485.701777 236.990435 
L 487.007926 238.453245 
L 488.314075 235.991392 
L 489.620224 234.22487 
L 490.926373 234.077671 
L 492.232523 231.853785 
L 493.538672 229.863207 
L 494.844821 234.804928 
L 496.15097 239.055941 
L 498.763269 233.011819 
L 500.069418 234.49767 
L 501.375567 234.599788 
L 502.681716 232.625166 
L 503.987865 232.9628 
L 505.294015 232.609683 
L 506.600164 230.641811 
L 507.906313 230.755178 
L 509.212462 233.642779 
L 510.518611 233.06761 
L 511.824761 230.877666 
L 513.13091 230.768943 
L 514.437059 228.814437 
L 515.743208 225.707145 
L 517.049357 226.991061 
L 518.355507 228.739184 
L 519.661656 225.176509 
L 520.967805 223.695033 
L 522.273954 226.835754 
L 523.580103 228.130669 
L 524.886253 223.883774 
L 526.192402 220.101069 
L 527.498551 221.402549 
L 530.110849 230.249062 
L 531.416999 231.32609 
L 532.723148 230.788297 
L 534.029297 227.018681 
L 535.335446 222.558243 
L 536.641595 225.260979 
L 537.947745 231.89289 
L 539.253894 233.906975 
L 540.560043 234.075233 
L 541.866192 234.707664 
L 543.172341 232.570267 
L 544.478491 229.742043 
L 545.78464 229.225991 
L 547.090789 231.715111 
L 548.396938 233.744405 
L 549.703087 233.003873 
L 551.009237 229.493514 
L 552.315386 224.830331 
L 553.621535 222.248325 
L 554.927684 223.595495 
L 556.233833 227.947845 
L 557.539983 227.913374 
L 558.846132 222.337086 
L 560.152281 219.534982 
L 561.45843 218.352063 
L 562.764579 208.855332 
L 564.070729 200.284791 
L 565.376878 219.205443 
L 566.683027 261.69029 
L 567.989176 281.539335 
L 569.295325 257.26958 
L 570.601475 223.06903 
L 571.907624 209.891687 
L 573.213773 213.117554 
L 574.519922 220.272636 
L 575.826071 228.584935 
L 577.132221 231.355456 
L 578.43837 225.581202 
L 579.744519 223.505178 
L 581.050668 227.206388 
L 582.356817 227.675836 
L 583.662967 224.682527 
L 584.969116 224.232466 
L 586.275265 227.942657 
L 587.581414 228.883105 
L 588.887563 226.822817 
L 590.193713 225.919796 
L 591.499862 225.943048 
L 592.806011 226.661579 
L 594.11216 226.920395 
L 595.418309 225.795501 
L 596.724459 221.900903 
L 598.030608 219.163608 
L 599.336757 220.817621 
L 600.642906 222.704949 
L 601.949055 222.284598 
L 603.255205 223.714575 
L 604.561354 225.608886 
L 607.173652 221.550539 
L 608.479802 222.527894 
L 609.785951 227.665611 
L 611.0921 229.109698 
L 612.398249 225.012161 
L 613.704398 224.151008 
L 615.010548 227.912245 
L 616.316697 230.289882 
L 617.622846 227.818924 
L 620.235144 224.270259 
L 621.541294 223.885566 
L 622.847443 229.278311 
L 624.153592 233.5185 
L 625.459741 228.983142 
L 626.76589 223.295245 
L 628.07204 224.077816 
L 630.684338 226.574398 
L 631.990487 231.060424 
L 633.296636 234.39395 
L 635.908935 232.290538 
L 637.215084 233.090615 
L 638.521233 233.431225 
L 639.827382 231.464376 
L 641.133532 229.269076 
L 642.439681 229.155332 
L 643.74583 228.582153 
L 645.051979 226.163547 
L 646.358128 226.288521 
L 647.664278 230.574082 
L 648.970427 230.935239 
L 650.276576 228.758 
L 651.582725 228.66237 
L 652.888874 227.876359 
L 654.195024 227.323973 
L 656.807322 229.461105 
L 658.113471 226.606636 
L 659.41962 221.675821 
L 660.72577 221.829665 
L 662.031919 222.448176 
L 663.338068 212.443359 
L 664.644217 198.74522 
L 665.950366 207.225766 
L 667.256516 243.891003 
L 668.562665 268.315935 
L 669.868814 249.777569 
L 671.174963 217.612909 
L 672.481112 207.626962 
L 673.787262 216.12373 
L 675.093411 228.319219 
L 676.39956 235.435434 
L 677.705709 233.545378 
L 679.011858 229.117055 
L 680.318008 227.925468 
L 681.624157 227.660622 
L 682.930306 226.243518 
L 684.236455 225.75316 
L 685.542604 226.88255 
L 686.848754 226.62869 
L 688.154903 224.067582 
L 689.461052 223.588227 
L 690.767201 224.497628 
L 693.3795 221.242695 
L 694.685649 223.777362 
L 695.991798 229.086786 
L 697.297947 230.240965 
L 698.604096 229.087898 
L 699.910246 229.554585 
L 701.216395 231.179023 
L 702.522544 232.57521 
L 703.828693 231.895145 
L 706.440992 227.309244 
L 707.747141 228.716401 
L 709.05329 231.050291 
L 710.359439 230.61491 
L 711.665588 227.641253 
L 712.971738 226.287315 
L 714.277887 227.477089 
L 715.584036 227.05257 
L 716.890185 224.782751 
L 718.196334 223.901625 
L 720.808633 231.156421 
L 722.114782 231.900327 
L 723.420931 230.798893 
L 724.72708 229.931109 
L 726.03323 229.527967 
L 727.339379 228.203455 
L 728.645528 228.729563 
L 729.951677 227.64128 
L 731.257826 224.245594 
L 732.563976 217.156492 
L 733.870125 214.227963 
L 735.176274 239.714993 
L 736.482423 274.906569 
L 737.788572 269.906675 
L 739.094722 231.876299 
L 740.400871 210.480425 
L 741.70702 216.114037 
L 743.013169 223.82912 
L 744.319318 222.999656 
L 745.625468 221.24863 
L 746.931617 223.196024 
L 748.237766 226.53182 
L 749.543915 227.097999 
L 750.850064 226.049544 
L 752.156214 227.544434 
L 753.462363 227.88665 
L 754.768512 225.228173 
L 756.074661 225.80598 
L 757.38081 230.082053 
L 758.68696 230.202368 
L 759.993109 227.783905 
L 761.299258 227.908641 
L 763.911556 230.012619 
L 765.217706 233.146814 
L 766.523855 237.669115 
L 767.830004 237.573497 
L 769.136153 234.014936 
L 770.442302 233.923407 
L 771.748452 237.067884 
L 773.054601 237.673342 
L 775.666899 229.188094 
L 776.973048 227.720335 
L 778.279198 225.330449 
L 778.279198 225.330449 
" clip-path="url(#p33e8f424f8)" style="fill: none; stroke: #ff7f0e; stroke-width: 1.5; stroke-linecap: square"/>
   </g>
   <g id="patch_3">
    <path d="M 108 320.4 
L 108 43.2 
" style="fill: none; stroke: #000000; stroke-width: 2; stroke-linejoin: miter; stroke-linecap: square"/>
   </g>
   <g id="patch_4">
    <path d="M 777.6 320.4 
L 777.6 43.2 
" style="fill: none; stroke: #000000; stroke-width: 2; stroke-linejoin: miter; stroke-linecap: square"/>
   </g>
   <g id="patch_5">
    <path d="M 108 320.4 
L 777.6 320.4 
" style="fill: none; stroke: #000000; stroke-width: 2; stroke-linejoin: miter; stroke-linecap: square"/>
   </g>
   <g id="patch_6">
    <path d="M 108 43.2 
L 777.6 43.2 
" style="fill: none; stroke: #000000; stroke-width: 2; stroke-linejoin: miter; stroke-linecap: square"/>
   </g>
   <g id="legend_1">
    <g id="patch_7">
     <path d="M 604.954687 110.941875 
L 765 110.941875 
Q 768.6 110.941875 768.6 107.341875 
L 768.6 55.8 
Q 768.6 52.2 765 52.2 
L 604.954687 52.2 
Q 601.354687 52.2 601.354687 55.8 
L 601.354687 107.341875 
Q 601.354687 110.941875 604.954687 110.941875 
z
" style="fill: #ffffff; opacity: 0.8; stroke: #cccccc; stroke-linejoin: miter"/>
    </g>
    <g id="line2d_19">
     <path d="M 608.554688 66.777187 
L 626.554688 66.777187 
L 644.554688 66.777187 
" style="fill: none; stroke: #1f77b4; stroke-width: 1.5; stroke-linecap: square"/>
    </g>
    <g id="text_17">
     <!-- ch_1 -->
     <g transform="translate(658.954687 73.077187)scale(0.18 -0.18)">
      <defs>
       <path id="DejaVuSans-63" d="M 3122 3366 
L 3122 2828 
Q 2878 2963 2633 3030 
Q 2388 3097 2138 3097 
Q 1578 3097 1268 2742 
Q 959 2388 959 1747 
Q 959 1106 1268 751 
Q 1578 397 2138 397 
Q 2388 397 2633 464 
Q 2878 531 3122 666 
L 3122 134 
Q 2881 22 2623 -34 
Q 2366 -91 2075 -91 
Q 1284 -91 818 406 
Q 353 903 353 1747 
Q 353 2603 823 3093 
Q 1294 3584 2113 3584 
Q 2378 3584 2631 3529 
Q 2884 3475 3122 3366 
z
" transform="scale(0.015625)"/>
       <path id="DejaVuSans-68" d="M 3513 2113 
L 3513 0 
L 2938 0 
L 2938 2094 
Q 2938 2591 2744 2837 
Q 2550 3084 2163 3084 
Q 1697 3084 1428 2787 
Q 1159 2491 1159 1978 
L 1159 0 
L 581 0 
L 581 4863 
L 1159 4863 
L 1159 2956 
Q 1366 3272 1645 3428 
Q 1925 3584 2291 3584 
Q 2894 3584 3203 3211 
Q 3513 2838 3513 2113 
z
" transform="scale(0.015625)"/>
       <path id="DejaVuSans-5f" d="M 3263 -1063 
L 3263 -1509 
L -63 -1509 
L -63 -1063 
L 3263 -1063 
z
" transform="scale(0.015625)"/>
      </defs>
      <use xlink:href="#DejaVuSans-63"/>
      <use xlink:href="#DejaVuSans-68" x="54.980469"/>
      <use xlink:href="#DejaVuSans-5f" x="118.359375"/>
      <use xlink:href="#DejaVuSans-31" x="168.359375"/>
     </g>
    </g>
    <g id="line2d_20">
     <path d="M 608.554688 93.698437 
L 626.554688 93.698437 
L 644.554688 93.698437 
" style="fill: none; stroke: #ff7f0e; stroke-width: 1.5; stroke-linecap: square"/>
    </g>
    <g id="text_18">
     <!-- filtered ch1 -->
     <g transform="translate(658.954687 99.998437)scale(0.18 -0.18)">
      <defs>
       <path id="DejaVuSans-66" d="M 2375 4863 
L 2375 4384 
L 1825 4384 
Q 1516 4384 1395 4259 
Q 1275 4134 1275 3809 
L 1275 3500 
L 2222 3500 
L 2222 3053 
L 1275 3053 
L 1275 0 
L 697 0 
L 697 3053 
L 147 3053 
L 147 3500 
L 697 3500 
L 697 3744 
Q 697 4328 969 4595 
Q 1241 4863 1831 4863 
L 2375 4863 
z
" transform="scale(0.015625)"/>
       <path id="DejaVuSans-69" d="M 603 3500 
L 1178 3500 
L 1178 0 
L 603 0 
L 603 3500 
z
M 603 4863 
L 1178 4863 
L 1178 4134 
L 603 4134 
L 603 4863 
z
" transform="scale(0.015625)"/>
       <path id="DejaVuSans-6c" d="M 603 4863 
L 1178 4863 
L 1178 0 
L 603 0 
L 603 4863 
z
" transform="scale(0.015625)"/>
       <path id="DejaVuSans-74" d="M 1172 4494 
L 1172 3500 
L 2356 3500 
L 2356 3053 
L 1172 3053 
L 1172 1153 
Q 1172 725 1289 603 
Q 1406 481 1766 481 
L 2356 481 
L 2356 0 
L 1766 0 
Q 1100 0 847 248 
Q 594 497 594 1153 
L 594 3053 
L 172 3053 
L 172 3500 
L 594 3500 
L 594 4494 
L 1172 4494 
z
" transform="scale(0.015625)"/>
       <path id="DejaVuSans-65" d="M 3597 1894 
L 3597 1613 
L 953 1613 
Q 991 1019 1311 708 
Q 1631 397 2203 397 
Q 2534 397 2845 478 
Q 3156 559 3463 722 
L 3463 178 
Q 3153 47 2828 -22 
Q 2503 -91 2169 -91 
Q 1331 -91 842 396 
Q 353 884 353 1716 
Q 353 2575 817 3079 
Q 1281 3584 2069 3584 
Q 2775 3584 3186 3129 
Q 3597 2675 3597 1894 
z
M 3022 2063 
Q 3016 2534 2758 2815 
Q 2500 3097 2075 3097 
Q 1594 3097 1305 2825 
Q 1016 2553 972 2059 
L 3022 2063 
z
" transform="scale(0.015625)"/>
       <path id="DejaVuSans-72" d="M 2631 2963 
Q 2534 3019 2420 3045 
Q 2306 3072 2169 3072 
Q 1681 3072 1420 2755 
Q 1159 2438 1159 1844 
L 1159 0 
L 581 0 
L 581 3500 
L 1159 3500 
L 1159 2956 
Q 1341 3275 1631 3429 
Q 1922 3584 2338 3584 
Q 2397 3584 2469 3576 
Q 2541 3569 2628 3553 
L 2631 2963 
z
" transform="scale(0.015625)"/>
       <path id="DejaVuSans-64" d="M 2906 2969 
L 2906 4863 
L 3481 4863 
L 3481 0 
L 2906 0 
L 2906 525 
Q 2725 213 2448 61 
Q 2172 -91 1784 -91 
Q 1150 -91 751 415 
Q 353 922 353 1747 
Q 353 2572 751 3078 
Q 1150 3584 1784 3584 
Q 2172 3584 2448 3432 
Q 2725 3281 2906 2969 
z
M 947 1747 
Q 947 1113 1208 752 
Q 1469 391 1925 391 
Q 2381 391 2643 752 
Q 2906 1113 2906 1747 
Q 2906 2381 2643 2742 
Q 2381 3103 1925 3103 
Q 1469 3103 1208 2742 
Q 947 2381 947 1747 
z
" transform="scale(0.015625)"/>
       <path id="DejaVuSans-20" transform="scale(0.015625)"/>
      </defs>
      <use xlink:href="#DejaVuSans-66"/>
      <use xlink:href="#DejaVuSans-69" x="35.205078"/>
      <use xlink:href="#DejaVuSans-6c" x="62.988281"/>
      <use xlink:href="#DejaVuSans-74" x="90.771484"/>
      <use xlink:href="#DejaVuSans-65" x="129.980469"/>
      <use xlink:href="#DejaVuSans-72" x="191.503906"/>
      <use xlink:href="#DejaVuSans-65" x="230.367188"/>
      <use xlink:href="#DejaVuSans-64" x="291.890625"/>
      <use xlink:href="#DejaVuSans-20" x="355.367188"/>
      <use xlink:href="#DejaVuSans-63" x="387.154297"/>
      <use xlink:href="#DejaVuSans-68" x="442.134766"/>
      <use xlink:href="#DejaVuSans-31" x="505.513672"/>
     </g>
    </g>
   </g>
  </g>
 </g>
 <defs>
  <clipPath id="p33e8f424f8">
   <rect x="108" y="43.2" width="669.6" height="277.2"/>
  </clipPath>
 </defs>
</svg>
